<svg width="107" height="79" viewBox="0 0 107 79" fill="none" xmlns="http://www.w3.org/2000/svg">

<g >
<path d="M85.3224 62.1702C85.3224 63.5974 85.3224 64.7652 85.3224 65.9329C85.3224 67.1007 84.9332 67.6197 83.6357 67.6197C79.3539 67.6197 75.0721 67.6197 70.7903 67.6197C69.8821 67.6197 69.2333 67.2304 69.2333 66.3222C69.2333 65.2842 70.0118 65.0247 70.7903 65.0247C74.2936 65.0247 77.6671 65.0247 81.1704 65.0247C81.6894 65.0247 82.0787 65.0247 82.5977 65.0247C82.5977 64.1164 82.5977 63.2082 82.5977 62.2999C81.8192 62.2999 81.0407 62.2999 80.2622 62.2999C77.6671 62.2999 74.9424 62.2999 72.3474 62.2999C70.1416 62.2999 68.4548 60.6132 68.4548 58.4074C68.4548 57.1099 68.4548 55.8124 68.4548 54.5149C68.4548 52.4389 70.0118 50.7521 72.0879 50.7521C74.9424 50.6223 77.9266 50.6223 80.9109 50.6223C81.4299 50.6223 82.0787 50.6223 82.5977 50.6223C82.5977 48.6761 82.5977 46.8596 82.5977 44.9133C82.0787 44.9133 81.6894 44.9133 81.3002 44.9133C75.8506 44.9133 70.4011 44.9133 64.9516 44.9133C62.8755 44.9133 62.4863 44.6538 62.4863 42.5778C62.4863 34.7927 62.4863 27.0077 62.4863 19.2226C62.4863 17.1466 62.7458 16.8871 64.9516 16.8871C70.4011 16.8871 75.8506 16.8871 81.3002 16.8871C81.6894 16.8871 82.2084 16.8871 82.7274 16.8871C82.7274 15.5896 82.8572 14.4218 82.7274 13.2541C82.7274 12.8648 82.0787 12.3458 81.5597 12.0863C81.1704 11.9566 80.6514 11.9566 80.2622 11.9566C69.7523 11.9566 59.2425 11.9566 48.7327 11.9566C46.3972 11.9566 46.1377 12.2161 46.1377 14.4218C46.1377 18.4441 46.1377 22.4664 46.1377 26.7482C46.6567 26.7482 47.0459 26.7482 47.4352 26.7482C50.8087 26.7482 54.1822 26.7482 57.6855 26.7482C59.3723 26.7482 59.8913 27.1374 59.8913 28.8242C59.8913 37.3877 59.8913 46.0811 59.8913 54.6446C59.8913 56.3314 59.502 56.7206 57.8153 56.7206C54.312 56.7206 50.9385 56.7206 47.4352 56.7206C47.0459 56.7206 46.6567 56.7206 46.2674 56.7206C46.2674 59.4454 46.2674 62.1702 46.2674 65.0247C46.6567 65.0247 47.0459 65.0247 47.5649 65.0247C50.8087 65.0247 54.0525 65.0247 57.2963 65.0247C57.6855 65.0247 58.0748 65.0247 58.3343 65.0247C59.1128 65.1544 59.6318 65.5437 59.6318 66.4519C59.6318 67.3602 58.983 67.7495 58.2045 67.7495C57.6855 67.7495 57.0368 67.7495 56.5177 67.7495C52.8847 67.7495 49.1219 67.7495 45.4889 67.7495C43.9319 67.7495 43.5427 67.3602 43.5427 65.8032C43.5427 62.8189 43.5427 59.8347 43.5427 56.7206C43.0237 56.7206 42.6344 56.7206 42.2451 56.7206C38.7419 56.7206 35.2386 56.7206 31.7353 56.7206C30.3081 56.7206 29.9188 56.3314 29.7891 54.9041C29.7891 46.0811 29.7891 37.258 29.7891 28.5647C29.7891 27.1374 30.1783 26.7482 31.7353 26.7482C35.2386 26.7482 38.6121 26.7482 42.1154 26.7482C42.5047 26.7482 43.0237 26.7482 43.5427 26.7482C43.5427 26.2292 43.5427 25.8399 43.5427 25.3209C43.5427 21.2986 43.6724 17.4061 43.5427 13.3838C43.4129 10.7888 45.7484 9.10205 47.8244 9.10205C58.8533 9.10205 70.0118 9.10205 81.0407 9.10205C83.6357 9.10205 85.3224 10.7888 85.3224 13.3838C85.3224 14.4218 85.3224 15.5896 85.3224 16.7574C85.8414 16.7574 86.2307 16.7574 86.62 16.7574C90.1232 16.7574 93.6265 16.7574 97.1298 16.7574C98.557 16.7574 98.9463 17.1466 98.9463 18.5739C98.9463 26.6184 98.9463 34.7927 98.9463 42.8373C98.9463 44.3943 98.557 44.7835 96.8703 44.7835C93.4968 44.7835 90.1232 44.7835 86.62 44.7835C86.2307 44.7835 85.7117 44.7835 85.3224 44.7835C85.3224 46.7298 85.3224 48.4166 85.3224 50.4926C86.2307 50.4926 87.2687 50.4926 88.177 50.4926C91.4207 50.4926 92.9777 52.0496 92.9777 55.2934C92.9777 56.2016 92.9777 57.2396 92.9777 58.1479C92.9777 60.3537 91.291 62.0404 89.0852 62.1702C87.9175 62.1702 86.62 62.1702 85.3224 62.1702ZM32.5138 53.8661C40.6881 53.8661 48.7327 53.8661 56.907 53.8661C56.907 45.6918 56.907 37.6472 56.907 29.4729C48.7327 29.4729 40.6881 29.4729 32.5138 29.4729C32.5138 37.6472 32.5138 45.8216 32.5138 53.8661ZM96.2215 42.0588C96.2215 34.4035 96.2215 27.0077 96.2215 19.6119C85.8414 19.6119 75.4614 19.6119 65.2111 19.6119C65.2111 21.2986 65.2111 22.8556 65.2111 24.4127C65.2111 25.9697 65.2111 27.5267 65.2111 29.3432C65.6003 29.0837 65.7301 29.0837 65.8598 28.9539C68.3251 26.0994 72.9961 25.8399 76.3696 29.0837C80.6514 33.3655 85.1927 37.3877 89.734 41.5398C89.9935 41.7993 90.5125 42.0588 90.9017 42.0588C92.5885 42.0588 94.2753 42.0588 96.2215 42.0588ZM86.2307 41.929C82.0787 38.0365 78.1861 34.5332 74.2936 30.7705C72.9961 29.6027 71.4391 28.5647 69.8821 29.3432C68.0656 30.2514 66.6383 31.9382 65.0813 33.2357V33.3655C65.0813 36.22 65.0813 39.0745 65.0813 41.929C72.0879 41.929 78.9647 41.929 86.2307 41.929ZM80.7812 53.3471C78.1861 53.3471 75.4614 53.3471 72.8664 53.3471C71.8284 53.3471 71.3093 53.8661 71.3093 54.9041C71.3093 55.9421 71.3093 56.9801 71.3093 58.0181C71.3093 59.0561 71.9581 59.7049 73.1259 59.7049C78.3159 59.7049 83.5059 59.7049 88.696 59.7049C89.8637 59.7049 90.3827 59.1859 90.3827 58.0181C90.3827 57.1099 90.3827 56.0719 90.3827 55.1636C90.3827 53.8661 89.8637 53.4769 88.5662 53.4769C85.9712 53.2174 83.3762 53.3471 80.7812 53.3471Z" fill="#2E367B"/>
<path d="M64.6916 64.7652C65.0809 65.2842 65.7297 65.8032 65.7297 66.3222C65.7297 66.8412 64.9511 67.4899 64.4321 67.6197C63.6536 67.7494 63.0049 67.1007 63.0049 66.3222C63.0049 65.8032 63.6536 65.2842 64.0429 64.7652C64.3024 64.7652 64.4321 64.7652 64.6916 64.7652Z" fill="#E31E24"/>
<path d="M43.4128 35.5712C42.3748 35.5712 41.5963 35.5712 40.688 35.5712C39.7797 35.5712 39.2607 35.0522 39.2607 34.2737C39.2607 33.3655 39.7797 32.8465 40.688 32.8465C43.4128 32.8465 46.0078 32.8465 48.7326 32.8465C49.6408 32.8465 50.1598 33.2357 50.1598 34.2737C50.1598 35.182 49.5111 35.5712 48.6028 35.5712C47.8243 35.5712 47.0458 35.5712 46.0078 35.5712C46.0078 36.0902 46.0078 36.4795 46.0078 36.8687C46.0078 40.6315 46.0078 44.524 46.0078 48.2868C46.0078 48.5463 46.0078 48.8058 46.0078 49.0653C46.0078 49.9736 45.4888 50.4926 44.5805 50.4926C43.6723 50.4926 43.283 49.9736 43.283 49.0653C43.283 45.043 43.283 41.0208 43.283 36.9985C43.4128 36.4795 43.4128 36.0902 43.4128 35.5712Z" fill="#E31E24"/>
<path d="M82.208 27.9159C82.208 24.6722 84.6733 22.2069 87.917 22.2069C91.1608 22.2069 93.6261 24.6722 93.6261 27.9159C93.6261 31.1597 91.1608 33.625 87.917 33.625C84.5435 33.625 82.208 31.1597 82.208 27.9159ZM87.917 24.9317C86.2303 24.9317 84.9328 26.0994 84.803 27.7862C84.803 29.4729 86.1005 30.9002 87.7873 30.9002C89.3443 30.9002 90.7716 29.6027 90.7716 27.9159C90.7716 26.3589 89.4741 24.9317 87.917 24.9317Z" fill="#E31E24"/>
</g>

</svg>
