<svg width="61" height="61" viewBox="0 0 61 61" fill="none" xmlns="http://www.w3.org/2000/svg">
<g clip-path="url(#clip0_56_1207)">
<path d="M42.1006 0.724365C48.335 0.724365 54.585 0.724365 60.8193 0.724365C60.8193 20.7244 60.8193 40.7244 60.8193 60.7244C40.835 60.7244 20.835 60.7244 0.819336 60.7244C0.819336 40.7244 0.819336 20.7244 0.819336 0.724365C4.86621 0.724365 8.91309 0.724365 12.9756 0.724365C12.3818 1.11499 12.21 1.67749 12.2256 2.36499C12.2725 3.70874 12.2412 5.05249 12.2412 6.39624C12.2412 6.64624 12.2412 6.88062 12.2412 7.13062C12.0537 7.14624 11.96 7.16187 11.8662 7.16187C9.25683 7.27124 7.58496 8.98999 7.58496 11.5837C7.58496 13.9587 7.58496 16.3337 7.58496 18.7244C7.58496 18.9275 7.58496 19.1462 7.58496 19.365C7.41309 19.3962 7.28809 19.4119 7.17871 19.4275C5.05371 19.6619 3.53809 21.0369 3.24121 23.1775C3.10059 24.115 3.16309 25.0837 3.16309 26.0369C3.16309 32.24 3.14746 38.4275 3.16309 44.6306C3.16309 46.9275 4.60059 48.7244 6.85059 49.0681C7.94434 49.24 9.06934 49.1462 10.1787 49.1619C10.8506 49.1775 11.5225 49.1619 12.2568 49.1619C12.2568 49.4431 12.2568 49.6619 12.2568 49.865C12.2568 52.9431 12.2568 56.0212 12.2568 59.0994C12.2568 60.2712 12.6162 60.6306 13.8037 60.6306C25.1943 60.6306 36.5693 60.6306 47.96 60.6306C49.1631 60.6306 49.5068 60.2869 49.5068 59.0525C49.5068 55.99 49.5068 52.9275 49.5068 49.865C49.5068 49.6462 49.5068 49.4119 49.5068 49.1462C51.1475 49.1462 52.71 49.1619 54.2725 49.1462C56.3975 49.115 58.1475 47.5994 58.5068 45.5056C58.5537 45.1931 58.6006 44.8806 58.6006 44.5837C58.6006 37.7244 58.6006 30.865 58.6006 24.0056C58.6006 21.7712 57.3037 20.0525 55.2256 19.5369C54.8975 19.4587 54.5381 19.4275 54.1787 19.365C54.1787 19.115 54.1787 18.8962 54.1787 18.6931C54.1787 16.24 54.1787 13.7869 54.1787 11.3181C54.1631 9.45874 52.9131 7.81812 51.1162 7.36499C50.5068 7.20874 49.835 7.27124 49.21 7.17749C48.9131 7.13062 48.5537 7.02124 48.3506 6.81812C46.5225 5.03687 44.7256 3.20874 42.9131 1.41187C42.6475 1.16187 42.3662 0.95874 42.1006 0.724365Z" fill="none"/>
<path d="M42.1004 0.724365C42.366 0.95874 42.6473 1.16187 42.8973 1.41187C44.7098 3.20874 46.5067 5.02124 48.3192 6.81812C48.5223 7.02124 48.8817 7.13062 49.1785 7.17749C49.8035 7.27124 50.4754 7.20874 51.0848 7.36499C52.8817 7.81812 54.1317 9.45874 54.1473 11.3181C54.1629 13.7712 54.1473 16.2244 54.1473 18.6931C54.1473 18.9119 54.1473 19.115 54.1473 19.365C54.5067 19.4275 54.866 19.4587 55.1942 19.5369C57.2723 20.0525 58.5692 21.7556 58.5692 24.0056C58.5692 30.865 58.5692 37.7244 58.5692 44.5837C58.5692 44.8962 58.5379 45.2087 58.4754 45.5056C58.116 47.5994 56.366 49.115 54.241 49.1462C52.6785 49.1619 51.1317 49.1462 49.4754 49.1462C49.4754 49.4119 49.4754 49.6306 49.4754 49.865C49.4754 52.9275 49.4754 55.99 49.4754 59.0525C49.4754 60.2712 49.1317 60.6306 47.9285 60.6306C36.5379 60.6306 25.1629 60.6306 13.7723 60.6306C12.6004 60.6306 12.2254 60.2712 12.2254 59.0994C12.2254 56.0212 12.2254 52.9431 12.2254 49.865C12.2254 49.6619 12.2254 49.4431 12.2254 49.1619C11.491 49.1619 10.8192 49.1775 10.1473 49.1619C9.03791 49.1462 7.91291 49.24 6.81916 49.0681C4.60041 48.7087 3.16291 46.9119 3.16291 44.615C3.14728 38.4119 3.16291 32.2244 3.16291 26.0212C3.16291 25.0681 3.11603 24.0994 3.24103 23.1619C3.55353 21.0369 5.05353 19.6462 7.17853 19.4119C7.28791 19.3962 7.39728 19.3806 7.58478 19.3494C7.58478 19.1306 7.58478 18.9119 7.58478 18.7087C7.58478 16.3337 7.58478 13.9587 7.58478 11.5681C7.58478 8.97437 9.25666 7.25562 11.866 7.16187C11.9598 7.16187 12.0535 7.14624 12.241 7.13062C12.241 6.88062 12.241 6.63062 12.241 6.39624C12.241 5.05249 12.2723 3.70874 12.2254 2.36499C12.2098 1.67749 12.3817 1.11499 12.9598 0.724365C22.6785 0.724365 32.3973 0.724365 42.1004 0.724365ZM47.1004 58.2556C47.1004 52.3181 47.1004 46.4275 47.1004 40.5056C46.8192 40.5056 46.5848 40.5056 46.3504 40.5056C42.991 40.5056 39.6473 40.5056 36.2879 40.5056C35.491 40.5056 34.9754 40.0212 34.9754 39.3337C34.991 38.6775 35.5067 38.1775 36.2567 38.1775C41.2879 38.1775 46.3192 38.1775 51.3504 38.1775C52.1473 38.1775 52.6473 38.6619 52.6317 39.3806C52.616 40.0681 52.1317 40.5056 51.3504 40.5212C50.7567 40.5212 50.1473 40.5212 49.5379 40.5212C49.5379 42.6462 49.5379 44.6931 49.5379 46.8181C50.9754 46.8181 52.3817 46.8181 53.7723 46.8181C55.4442 46.8181 56.2098 46.0681 56.2098 44.3962C56.2098 41.2712 56.2098 38.1619 56.2098 35.0369C56.2098 31.365 56.2098 27.7087 56.2098 24.0369C56.2098 22.5525 55.4285 21.7869 53.991 21.7869C38.5692 21.7869 23.1473 21.7869 7.72541 21.7869C6.36603 21.7869 5.55353 22.5525 5.55353 23.8962C5.53791 30.8181 5.53791 37.74 5.55353 44.6619C5.55353 45.99 6.38166 46.7869 7.72541 46.8025C8.69416 46.8181 9.67853 46.8025 10.6473 46.8025C11.1629 46.8025 11.6785 46.8025 12.2098 46.8025C12.2098 44.6619 12.2098 42.615 12.2098 40.5056C11.5223 40.5056 10.8817 40.5212 10.241 40.5056C9.55353 40.49 9.08478 39.9587 9.11603 39.2869C9.14728 38.5994 9.66291 38.1775 10.491 38.1775C14.991 38.1775 19.491 38.1775 24.0067 38.1775C24.5379 38.1775 25.0535 38.1619 25.5848 38.1775C26.2723 38.2087 26.7879 38.74 26.7723 39.3806C26.7567 40.0681 26.241 40.5212 25.4285 40.5212C22.0379 40.5212 18.6473 40.5212 15.2567 40.5212C15.0535 40.5212 14.8504 40.5212 14.6629 40.5212C14.6629 46.49 14.6629 52.3806 14.6629 58.2712C25.4598 58.2556 36.2567 58.2556 47.1004 58.2556ZM14.616 3.08374C14.616 8.53687 14.616 13.9275 14.616 19.3494C25.4598 19.3494 36.2879 19.3494 47.1004 19.3494C47.1004 16.115 47.1004 12.9275 47.1004 9.70874C45.3817 9.70874 43.7098 9.70874 42.0379 9.70874C40.9598 9.70874 40.5379 9.28687 40.5379 8.22437C40.5379 6.72437 40.5379 5.22437 40.5379 3.72437C40.5379 3.52124 40.5379 3.31812 40.5379 3.08374C31.866 3.08374 23.2723 3.08374 14.616 3.08374ZM9.92853 19.3181C10.7254 19.3181 11.4754 19.3181 12.2098 19.3181C12.2098 16.0369 12.2098 12.8337 12.2098 9.63062C10.9442 9.38062 9.94416 10.1775 9.92853 11.4587C9.91291 13.5994 9.92853 15.74 9.92853 17.8806C9.92853 18.365 9.92853 18.8337 9.92853 19.3181ZM49.5379 9.59937C49.5379 12.865 49.5379 16.0994 49.5379 19.3494C50.3192 19.3494 51.0379 19.3494 51.8035 19.3494C51.8035 16.6306 51.8348 13.9431 51.7879 11.2556C51.7723 10.115 50.7879 9.44312 49.5379 9.59937ZM45.2254 7.28687C44.4598 6.52124 43.6942 5.73999 42.9598 4.98999C42.9598 5.69312 42.9598 6.48999 42.9598 7.28687C43.7567 7.28687 44.5223 7.28687 45.2254 7.28687Z" fill="#2E367B"/>
<path d="M47.1006 58.2556C36.2725 58.2556 25.4756 58.2556 14.6475 58.2556C14.6475 52.3494 14.6475 46.4744 14.6475 40.5056C14.835 40.5056 15.0381 40.5056 15.2412 40.5056C18.6318 40.5056 22.0225 40.5056 25.4131 40.5056C26.2256 40.5056 26.7412 40.0525 26.7568 39.365C26.7725 38.7244 26.2568 38.1931 25.5693 38.1619C25.0381 38.1462 24.5225 38.1619 23.9912 38.1619C19.4912 38.1619 14.9912 38.1619 10.4756 38.1619C9.64746 38.1619 9.13184 38.5837 9.10059 39.2712C9.06934 39.9431 9.53809 40.4744 10.2256 40.49C10.8662 40.5056 11.5068 40.49 12.1943 40.49C12.1943 42.5837 12.1943 44.6462 12.1943 46.7869C11.6631 46.7869 11.1475 46.7869 10.6318 46.7869C9.66309 46.7869 8.67871 46.8025 7.70996 46.7869C6.36621 46.7712 5.53809 45.9744 5.53809 44.6462C5.52246 37.7244 5.52246 30.8025 5.53809 23.8806C5.53809 22.5369 6.36621 21.7712 7.70996 21.7712C23.1318 21.7712 38.5537 21.7712 53.9756 21.7712C55.4131 21.7712 56.1943 22.5525 56.1943 24.0212C56.21 27.6931 56.1943 31.3494 56.1943 35.0212C56.1943 38.1462 56.1943 41.2556 56.1943 44.3806C56.1943 46.0525 55.4443 46.8025 53.7568 46.8025C52.3506 46.8025 50.96 46.8025 49.5225 46.8025C49.5225 44.6931 49.5225 42.6306 49.5225 40.5056C50.1318 40.5056 50.7412 40.5056 51.335 40.5056C52.1162 40.49 52.6006 40.0681 52.6162 39.365C52.6318 38.6462 52.1318 38.1619 51.335 38.1619C46.3037 38.1619 41.2725 38.1619 36.2412 38.1619C35.5068 38.1619 34.9756 38.6619 34.96 39.3181C34.9443 40.0056 35.4756 40.49 36.2725 40.49C39.6318 40.49 42.9756 40.49 46.335 40.49C46.5693 40.49 46.8037 40.49 47.085 40.49C47.1006 46.4275 47.1006 52.3181 47.1006 58.2556ZM30.8818 45.5525C28.21 45.5525 25.5381 45.5525 22.8662 45.5525C22.1006 45.5525 21.6006 46.0369 21.5693 46.6931C21.5381 47.3494 22.0381 47.8494 22.7881 47.9119C22.9443 47.9275 23.1006 47.9275 23.2568 47.9275C28.3193 47.9275 33.3975 47.9275 38.46 47.9275C38.71 47.9275 38.9756 47.9119 39.21 47.8806C39.7881 47.7712 40.085 47.3962 40.1475 46.8337C40.2256 46.0837 39.6475 45.5525 38.7568 45.5525C36.1475 45.5525 33.5068 45.5525 30.8818 45.5525ZM30.8662 52.4744C28.2412 52.4744 25.6006 52.4744 22.9756 52.4744C22.085 52.4744 21.5537 52.9744 21.5693 53.6931C21.585 54.3962 22.1318 54.8337 22.9756 54.8494C23.0537 54.8494 23.1318 54.8494 23.21 54.8494C28.3193 54.8494 33.4287 54.8494 38.5381 54.8494C38.7725 54.8494 39.0068 54.8494 39.2412 54.8025C39.9756 54.6306 40.3818 53.9119 40.1006 53.2244C39.8506 52.615 39.3193 52.4587 38.7256 52.4587C36.1006 52.49 33.4756 52.4744 30.8662 52.4744ZM40.8193 25.5212C38.71 25.5212 37.0381 27.2087 37.0381 29.3025C37.0381 31.4119 38.7568 33.1306 40.8506 33.1306C42.9131 33.115 44.6475 31.3962 44.6475 29.3337C44.6631 27.2244 42.9287 25.5056 40.8193 25.5212ZM46.7725 29.2869C46.7568 31.3806 48.4287 33.0994 50.5068 33.1306C52.6162 33.1462 54.3662 31.4431 54.3818 29.3494C54.3975 27.24 52.6787 25.5369 50.5693 25.5369C48.4443 25.5212 46.7725 27.1775 46.7725 29.2869ZM32.0537 39.3181C32.0381 38.6462 31.5225 38.1462 30.8662 38.1619C30.2256 38.1775 29.6943 38.74 29.7256 39.3806C29.7568 40.0056 30.2725 40.49 30.9131 40.49C31.5693 40.5056 32.0537 39.99 32.0537 39.3181Z" fill="none"/>
<path d="M14.6162 3.08374C23.2725 3.08374 31.8506 3.08374 40.5381 3.08374C40.5381 3.30249 40.5381 3.52124 40.5381 3.72437C40.5381 5.22437 40.5381 6.72437 40.5381 8.22437C40.5381 9.28687 40.96 9.70874 42.0381 9.70874C43.71 9.70874 45.3818 9.70874 47.1006 9.70874C47.1006 12.9275 47.1006 16.115 47.1006 19.3494C36.2881 19.3494 25.46 19.3494 14.6162 19.3494C14.6162 13.9275 14.6162 8.53687 14.6162 3.08374Z" fill="none"/>
<path d="M9.92882 19.3181C9.92882 18.8494 9.92882 18.365 9.92882 17.8806C9.92882 15.74 9.91319 13.5994 9.92882 11.4587C9.94444 10.1775 10.9288 9.38062 12.2101 9.63062C12.2101 12.8337 12.2101 16.0369 12.2101 19.3181C11.4757 19.3181 10.7257 19.3181 9.92882 19.3181Z" fill="none"/>
<path d="M49.5381 9.59939C50.7881 9.44314 51.7568 10.115 51.7881 11.2556C51.835 13.9431 51.8037 16.615 51.8037 19.3494C51.0537 19.3494 50.3193 19.3494 49.5381 19.3494C49.5381 16.0994 49.5381 12.865 49.5381 9.59939Z" fill="none"/>
<path d="M45.2256 7.28687C44.5381 7.28687 43.7568 7.28687 42.96 7.28687C42.96 6.48999 42.96 5.70874 42.96 4.98999C43.6787 5.73999 44.46 6.50562 45.2256 7.28687Z" fill="none"/>
<path d="M30.8818 45.5525C33.5068 45.5525 36.1474 45.5525 38.7724 45.5525C39.663 45.5525 40.2411 46.0837 40.163 46.8337C40.1005 47.3962 39.788 47.7712 39.2255 47.8806C38.9755 47.9275 38.7255 47.9275 38.4755 47.9275C33.413 47.9275 28.3349 47.9275 23.2724 47.9275C23.1161 47.9275 22.9599 47.9275 22.8036 47.9119C22.0536 47.8494 21.5536 47.3494 21.5849 46.6931C21.6161 46.0212 22.1161 45.5525 22.8818 45.5525C25.538 45.5369 28.2099 45.5525 30.8818 45.5525Z" fill="#E31E24"/>
<path d="M30.8661 52.4744C33.4754 52.4744 36.0848 52.4744 38.7098 52.4744C39.3192 52.4744 39.8348 52.615 40.0848 53.24C40.3661 53.9119 39.9598 54.6462 39.2254 54.8181C39.0067 54.865 38.7567 54.865 38.5223 54.865C33.4129 54.865 28.3036 54.865 23.1942 54.865C23.1161 54.865 23.0379 54.865 22.9598 54.865C22.1161 54.8494 21.5692 54.4119 21.5536 53.7087C21.5379 52.99 22.0692 52.49 22.9598 52.49C25.6004 52.4744 28.2411 52.4744 30.8661 52.4744Z" fill="#E31E24"/>
<path d="M40.8194 25.5212C42.9288 25.5212 44.6632 27.2244 44.6632 29.3181C44.6632 31.3806 42.9288 33.115 40.8663 33.115C38.7569 33.1306 37.0382 31.4119 37.0538 29.2869C37.0382 27.1931 38.7101 25.5212 40.8194 25.5212ZM42.2569 29.3181C42.2569 28.5056 41.6319 27.865 40.8351 27.8494C40.0382 27.8494 39.3976 28.5056 39.3976 29.3025C39.3976 30.0837 40.0226 30.7087 40.8038 30.74C41.5851 30.7712 42.2569 30.1306 42.2569 29.3181Z" fill="#E31E24"/>
<path d="M46.7726 29.2869C46.7882 27.1775 48.4601 25.5212 50.5694 25.5212C52.6944 25.5212 54.3976 27.24 54.3819 29.3337C54.3663 31.4275 52.6163 33.1462 50.5069 33.115C48.4288 33.0994 46.7569 31.3806 46.7726 29.2869ZM49.1163 29.3337C49.1319 30.115 49.8038 30.7712 50.5851 30.7556C51.3663 30.74 52.0226 30.0681 52.0069 29.2712C51.9913 28.4744 51.3194 27.8337 50.5382 27.8494C49.7569 27.8806 49.1007 28.5525 49.1163 29.3337Z" fill="#E31E24"/>
<path d="M32.0536 39.3181C32.0692 39.99 31.5692 40.49 30.8973 40.5056C30.2567 40.5056 29.7411 40.0212 29.7098 39.3962C29.6786 38.7556 30.2098 38.1931 30.8504 38.1775C31.5223 38.1462 32.0379 38.6462 32.0536 39.3181Z" fill="#E31E24"/>
<path d="M42.2568 29.3181C42.2568 30.115 41.585 30.7712 40.7881 30.74C40.0068 30.7087 39.3975 30.0837 39.3818 29.3025C39.3818 28.5056 40.0225 27.8494 40.8193 27.8494C41.6475 27.865 42.2725 28.5056 42.2568 29.3181Z" fill="none"/>
<path d="M49.116 29.3337C49.1004 28.5525 49.741 27.8806 50.5379 27.865C51.3348 27.8493 51.991 28.49 52.0066 29.2868C52.0223 30.0681 51.3816 30.74 50.5848 30.7712C49.8035 30.7712 49.1316 30.115 49.116 29.3337Z" fill="none"/>
</g>
<defs>
<clipPath id="clip0_56_1207">
<rect width="60" height="60" fill="none" transform="translate(0.819336 0.724365)"/>
</clipPath>
</defs>
</svg>
