<svg width="93" height="79" viewBox="0 0 93 79" fill="none" xmlns="http://www.w3.org/2000/svg">
<g>
<path d="M27.8193 22.9133C27.9159 22.527 28.0125 22.1407 28.1091 21.6578C29.1715 17.6979 32.745 14.897 36.8981 14.897C44.8178 14.897 52.7376 14.897 60.6574 14.897C61.6232 14.897 62.2027 15.3799 62.2027 16.1526C62.2027 16.9252 61.6232 17.4081 60.6574 17.4081C55.1522 17.4081 49.7436 17.4081 44.2384 17.4081C44.0452 17.4081 43.7554 17.4081 43.4657 17.4081C47.0392 21.7544 47.0392 26.1971 43.5623 30.5434C43.7554 30.5434 43.852 30.5434 44.0452 30.5434C57.1804 30.5434 70.219 30.5434 83.3542 30.5434C87.0244 30.5434 89.6321 28.1288 90.115 24.5552C90.5014 21.368 87.9902 17.9876 84.7064 17.5047C84.1269 17.4081 83.5474 17.4081 82.9679 17.4081C79.3944 17.4081 75.8208 17.4081 72.2473 17.4081C71.6678 17.4081 71.1849 17.1184 70.9917 16.5389C70.7985 15.9594 70.8951 15.4765 71.378 15.0902C71.6678 15.0902 71.9575 14.897 72.2473 14.897C76.3037 14.897 80.2636 14.8004 84.3201 14.897C88.28 14.9936 91.9501 18.4706 92.5296 22.4304C93.1091 26.2937 91.7569 29.3844 88.5697 31.7023C88.4731 31.7989 88.3765 31.7989 88.2799 31.8955C91.7569 34.3101 93.3022 37.4973 92.5296 41.7469C92.1432 43.7752 91.0808 45.4171 89.5355 46.7692C87.9902 48.1214 86.0586 48.7974 84.0303 48.894C84.0303 49.1838 84.0303 49.3769 84.0303 49.5701C84.0303 52.1778 84.0303 54.689 84.0303 57.2967C84.0303 57.7796 84.1269 57.9728 84.6098 58.1659C86.9278 59.0352 88.2799 61.4497 87.797 63.7677C87.3141 66.2789 85.2859 68.1139 82.7748 68.1139C73.8892 68.1139 64.907 68.1139 56.0214 68.1139C52.2547 68.1139 49.2606 65.0233 49.2606 61.2566C49.2606 57.3933 49.2606 53.53 49.2606 49.7633C49.2606 49.5701 49.2606 49.2804 49.2606 48.9906C48.9709 48.9906 48.6811 48.9906 48.488 48.9906C44.9144 48.9906 41.3409 48.9906 37.7673 48.9906C32.6485 48.9906 29.1715 46.1897 28.1091 41.1674C27.9159 41.0708 27.8193 41.0708 27.8193 40.9743C27.8193 40.2016 27.8193 39.3324 27.8193 38.5597L27.9159 38.4631C28.3988 35.6622 29.8476 33.4408 32.2621 31.8955C32.069 31.7023 31.8758 31.6058 31.6826 31.5092C29.9441 30.2536 28.7852 28.6117 28.1091 26.4869C28.0125 26.1006 27.9159 25.7142 27.8193 25.3279C27.8193 24.5552 27.8193 23.686 27.8193 22.9133ZM51.6752 33.2477C51.6752 33.4408 51.6752 33.5374 51.6752 33.634C51.6752 42.8093 51.6752 51.9847 51.6752 61.0634C51.6752 63.8643 54.0898 65.8925 56.8907 65.5062C58.5326 65.2165 59.595 63.5746 59.0155 62.0292C58.6291 60.9668 57.7599 60.3873 56.6009 60.2908C55.8282 60.1942 55.3453 59.7113 55.3453 58.9386C55.3453 58.1659 55.9248 57.683 56.8907 57.683C64.8104 57.683 72.6336 57.683 80.5534 57.683C80.8431 57.683 81.0363 57.683 81.326 57.683C81.326 49.4735 81.326 41.264 81.326 33.0545C71.378 33.2477 61.5266 33.2477 51.6752 33.2477ZM43.5623 24.0723C43.5623 20.4022 40.6648 17.5047 36.9947 17.4081C33.4211 17.4081 30.4271 20.4022 30.4271 23.9757C30.4271 27.5493 33.4211 30.5434 36.9947 30.5434C40.5682 30.6399 43.5623 27.7425 43.5623 24.0723ZM36.9947 46.3829C40.6648 46.3829 43.5623 43.4854 43.5623 39.8153C43.5623 36.2417 40.6648 33.2477 36.9947 33.2477C33.4211 33.2477 30.4271 36.2417 30.4271 39.8153C30.3305 43.3888 33.3245 46.3829 36.9947 46.3829ZM61.0437 65.6028C64.8104 65.6028 68.384 65.6028 72.0541 65.6028C75.5311 65.6028 79.008 65.6028 82.485 65.6028C84.3201 65.6028 85.5756 64.0575 85.0927 62.319C84.803 61.16 83.7406 60.3873 82.3884 60.3873C75.4345 60.3873 68.4805 60.3873 61.5266 60.3873C61.43 60.3873 61.2369 60.3873 61.0437 60.3873C61.9129 62.1258 61.9129 63.8643 61.0437 65.6028ZM83.9337 46.3829C86.4449 46.0931 88.28 45.0307 89.3424 42.8093C90.5979 40.3948 90.4048 38.0768 88.7629 35.8554C87.6039 34.2135 85.962 33.3442 83.8372 33.2477C83.9337 37.6905 83.9337 41.9401 83.9337 46.3829ZM43.3691 46.2863C45.3008 46.2863 47.2324 46.2863 49.0675 46.2863C49.0675 41.9401 49.0675 37.5939 49.0675 33.2477C47.1358 33.2477 45.3008 33.2477 43.3691 33.2477C45.2042 35.0827 46.0734 37.3041 46.0734 39.7187C46.0734 42.3264 45.2042 44.4512 43.3691 46.2863Z" fill="#2E367B"/>
<path d="M67.7079 16.1526C67.7079 16.9252 67.1284 17.4081 66.4523 17.4081C65.7763 17.4081 65.1968 16.8286 65.1968 16.1526C65.1968 15.4765 65.7763 14.897 66.4523 14.897C67.1284 14.897 67.7079 15.4765 67.7079 16.1526Z" fill="#E31E24"/>
<path d="M66.5487 54.2061C63.7478 54.2061 60.8503 54.2061 58.0494 54.2061C56.1178 54.2061 55.3451 53.0471 56.0212 51.212C57.0836 48.3145 58.2426 45.4171 59.305 42.5196C59.8845 40.9743 61.2367 40.5879 62.5888 41.5538C64.4239 43.0025 66.3555 44.4512 68.1906 45.9C68.4803 46.1897 68.7701 46.1897 69.1564 45.9966C69.9291 45.6102 70.7017 45.3205 71.571 45.0307C72.73 44.5478 73.5992 44.9341 74.1787 45.9966C75.1445 47.735 76.1104 49.4735 76.9796 51.212C77.7523 52.7573 76.883 54.2061 75.2411 54.2061C72.3436 54.2061 69.4462 54.2061 66.5487 54.2061ZM58.6289 51.5983C63.8444 51.5983 69.0598 51.5983 74.2753 51.5983C73.5026 50.2462 72.8266 48.9906 72.1505 47.6385C71.1847 48.0248 70.412 48.3145 69.5428 48.7009C68.6735 49.0872 67.9974 48.9906 67.2248 48.4111C66.3555 47.6385 65.3897 46.9624 64.5205 46.2863C63.5546 45.5136 62.5888 44.8376 61.623 44.0649C60.5606 46.576 59.5948 49.0872 58.6289 51.5983Z" fill="#E31E24"/>
<path d="M70.8951 43.0991C68.7703 43.0991 67.0318 41.3606 67.1284 39.2358C67.1284 37.111 68.8668 35.4691 70.9916 35.4691C73.0199 35.4691 74.7584 37.2075 74.7584 39.3324C74.7584 41.3606 73.0199 43.0991 70.8951 43.0991ZM69.7361 39.2358C69.7361 39.9119 70.219 40.4914 70.8951 40.4914C71.5711 40.4914 72.1506 40.0084 72.1506 39.2358C72.1506 38.5597 71.6677 37.9802 70.8951 37.9802C70.3156 37.9802 69.7361 38.5597 69.7361 39.2358Z" fill="#E31E24"/>
<path d="M38.2504 24.0723C38.2504 24.845 37.7675 25.3279 36.9948 25.3279C36.3188 25.3279 35.7393 24.7484 35.7393 24.0723C35.7393 23.3963 36.3188 22.8168 36.9948 22.8168C37.6709 22.8168 38.2504 23.2997 38.2504 24.0723Z" fill="#E31E24"/>
<path d="M38.2504 39.8153C38.2504 40.4913 37.6709 41.0708 36.9948 41.0708C36.3188 41.0708 35.7393 40.4913 35.7393 39.8153C35.7393 39.1392 36.3188 38.5597 36.9948 38.5597C37.5743 38.4631 38.2504 39.0426 38.2504 39.8153Z" fill="#E31E24"/>
</g>
</svg>
