<svg width="61" height="61" viewBox="0 0 61 61" fill="none" xmlns="http://www.w3.org/2000/svg">
<g clip-path="url(#clip0_56_1184)">
<path d="M50.2881 0.724365C53.8037 0.724365 57.3037 0.724365 60.8193 0.724365C60.8193 20.7244 60.8193 40.7244 60.8193 60.7244C40.8193 60.7244 20.835 60.7244 0.819336 60.7244C0.819336 40.7244 0.819336 20.7244 0.819336 0.724365C4.35059 0.724365 7.89746 0.724365 11.4443 0.724365C11.3662 0.77124 11.2725 0.818115 11.1943 0.849365C9.56934 1.36499 8.64746 2.63062 8.64746 4.34937C8.64746 5.20874 8.66309 6.06812 8.64746 6.92749C8.63184 7.69312 8.81934 8.44312 9.33496 8.98999C9.89746 9.58374 9.81934 10.1462 9.49121 10.7244C9.17871 11.2712 8.77246 11.7869 8.31934 12.2244C7.75684 12.7712 7.11621 13.2087 6.50684 13.6931C3.92871 15.7712 3.38184 18.0837 4.78809 21.0369C4.14746 21.8025 3.94434 22.6931 3.95996 23.6931C3.99121 27.3181 3.99121 30.9431 3.95996 34.5681C3.94434 35.7087 4.03809 36.7869 4.85059 37.7087C4.03809 38.5837 3.92871 39.6306 3.95996 40.7244C3.99121 41.74 3.99121 42.7556 3.95996 43.7712C3.92871 44.9587 3.97559 46.115 4.83496 47.0681C4.10059 47.9275 3.92871 48.8806 3.94434 49.9275C3.97559 52.2712 3.95996 54.5994 3.95996 56.9431C3.95996 59.1619 5.44434 60.615 7.66309 60.6306C9.31934 60.6306 10.9756 60.5994 12.6318 60.6462C13.46 60.6775 14.085 60.4431 14.6318 59.8337C15.2881 59.0994 15.8506 59.0994 16.6006 59.74C17.3037 60.3494 18.1162 60.6462 19.0537 60.6462C20.6162 60.6306 22.1787 60.6462 23.7256 60.6462C25.835 60.6462 27.3193 59.1462 27.335 57.0369C27.335 54.5212 27.335 52.0056 27.335 49.49C27.335 48.7244 27.1475 48.0212 26.6943 47.4119C26.5225 47.1619 26.5068 47.0056 26.6943 46.7556C27.1631 46.1306 27.3506 45.4119 27.335 44.615C27.3193 43.1306 27.3193 41.6462 27.335 40.1775C27.3506 39.3962 27.1162 38.6931 26.71 38.0212C26.6162 37.8806 26.6006 37.5837 26.6943 37.4431C27.1475 36.7556 27.3506 36.0056 27.335 35.1775C27.3193 31.3025 27.3193 27.4275 27.335 23.5369C27.335 22.7087 27.1475 21.9744 26.6943 21.2712C26.6006 21.1306 26.6475 20.865 26.6943 20.6775C26.8818 20.0212 27.2725 19.365 27.3037 18.7087C27.3975 16.7556 26.5693 15.1619 25.0693 13.9119C24.3193 13.2869 23.5537 12.6931 22.8037 12.0681C22.1318 11.5056 21.6943 10.8025 21.585 9.94312C21.5537 9.72437 21.6475 9.45874 21.7725 9.28687C22.335 8.56812 22.6631 7.78687 22.6475 6.86499C22.6318 5.97437 22.6475 5.06812 22.6475 4.17749C22.6318 2.75562 21.7568 1.48999 20.4287 0.974365C20.2412 0.89624 20.0381 0.818115 19.8506 0.73999C27.1787 0.73999 34.5068 0.73999 41.8506 0.73999C41.7725 0.786865 41.6787 0.83374 41.6006 0.86499C39.9756 1.38062 39.0537 2.64624 39.0537 4.36499C39.0537 5.22437 39.0693 6.08374 39.0537 6.94312C39.0381 7.70874 39.2256 8.45874 39.7412 9.00562C40.3037 9.59937 40.2256 10.1619 39.8975 10.74C39.585 11.2869 39.1787 11.8025 38.7256 12.24C38.1631 12.7869 37.5225 13.2244 36.9131 13.7087C34.335 15.7869 33.7881 18.0994 35.1943 21.0525C34.5693 21.8181 34.3506 22.7087 34.3662 23.7087C34.3975 27.3337 34.3975 30.9587 34.3662 34.5837C34.3506 35.7244 34.4443 36.8025 35.2568 37.7087C34.4756 38.5994 34.335 39.6306 34.3662 40.74C34.3975 41.7556 34.3975 42.7712 34.3662 43.7869C34.335 44.9744 34.3818 46.1306 35.2412 47.0837C34.5068 47.9431 34.335 48.8962 34.3506 49.9431C34.3818 52.3025 34.3506 54.6619 34.3662 57.0212C34.3662 59.1619 35.8662 60.6462 38.0225 60.6462C39.6943 60.6462 41.3818 60.615 43.0537 60.6619C43.8818 60.6931 44.5068 60.4587 45.0693 59.8494C45.7256 59.115 46.2881 59.115 47.0381 59.7556C47.7412 60.365 48.5537 60.6619 49.4912 60.6619C51.0537 60.6462 52.6162 60.6619 54.1631 60.6619C56.2725 60.6619 57.7568 59.1619 57.7725 57.0525C57.7725 54.5369 57.7725 52.0212 57.7725 49.5056C57.7725 48.74 57.585 48.0369 57.1318 47.4275C56.96 47.1775 56.9443 47.0212 57.1318 46.7712C57.6006 46.1462 57.7881 45.4275 57.7725 44.6306C57.7568 43.1462 57.7568 41.6619 57.7725 40.1931C57.7881 39.4119 57.5537 38.7087 57.1475 38.0369C57.0537 37.8962 57.0381 37.5994 57.1318 37.4587C57.585 36.7712 57.7881 36.0212 57.7725 35.1931C57.7568 31.3181 57.7568 27.4431 57.7725 23.5525C57.7725 22.7244 57.585 21.99 57.1318 21.2869C57.0381 21.1462 57.085 20.8806 57.1318 20.6931C57.3193 20.0369 57.71 19.3806 57.7412 18.7244C57.835 16.7712 57.0068 15.1775 55.5068 13.9275C54.7568 13.3025 53.9912 12.7087 53.2412 12.0837C52.5693 11.5212 52.1318 10.8181 52.0225 9.95874C51.9912 9.73999 52.085 9.47437 52.21 9.30249C52.7725 8.58374 53.1006 7.80249 53.085 6.88062C53.0693 5.98999 53.085 5.08374 53.085 4.19312C53.0693 2.77124 52.1943 1.50562 50.8662 0.98999C50.6787 0.880615 50.4912 0.80249 50.2881 0.724365Z" fill="none"/>
<path d="M19.8662 0.724365C20.0537 0.80249 20.2568 0.880615 20.4443 0.95874C21.7724 1.48999 22.6474 2.73999 22.6631 4.16187C22.6787 5.05249 22.6474 5.95874 22.6631 6.84937C22.6787 7.77124 22.3506 8.55249 21.7881 9.27124C21.6474 9.44312 21.5693 9.72437 21.6006 9.92749C21.7099 10.8025 22.1474 11.5056 22.8193 12.0525C23.5693 12.6775 24.3349 13.2712 25.0849 13.8962C26.5849 15.1462 27.4131 16.74 27.3193 18.6931C27.2881 19.3494 26.9131 20.0056 26.7099 20.6619C26.6631 20.8494 26.6162 21.115 26.7099 21.2556C27.1631 21.9431 27.3506 22.6931 27.3506 23.5212C27.3349 27.3962 27.3349 31.2712 27.3506 35.1619C27.3506 35.99 27.1474 36.7244 26.7099 37.4275C26.6162 37.5681 26.6318 37.865 26.7256 38.0056C27.1474 38.6619 27.3662 39.365 27.3506 40.1619C27.3349 41.6462 27.3349 43.1306 27.3506 44.5994C27.3662 45.3806 27.1631 46.115 26.7099 46.74C26.5224 46.99 26.5381 47.1462 26.7099 47.3962C27.1631 48.0056 27.3506 48.7087 27.3506 49.4744C27.3349 51.99 27.3506 54.5056 27.3506 57.0212C27.3506 59.1306 25.8506 60.6306 23.7412 60.6306C22.1787 60.6306 20.6162 60.615 19.0693 60.6306C18.1318 60.6462 17.3193 60.3337 16.6162 59.7244C15.8818 59.0837 15.3037 59.0837 14.6474 59.8181C14.0849 60.4431 13.4756 60.6619 12.6474 60.6306C10.9912 60.5681 9.33494 60.615 7.67869 60.615C5.44431 60.615 3.97556 59.1462 3.97556 56.9275C3.97556 54.5837 3.99119 52.2556 3.95994 49.9119C3.94431 48.865 4.11619 47.8962 4.85056 47.0525C3.99119 46.0994 3.92869 44.9431 3.97556 43.7556C4.00681 42.74 4.00681 41.7244 3.97556 40.7087C3.94431 39.615 4.05369 38.5681 4.86619 37.6931C4.03806 36.7712 3.95994 35.6931 3.97556 34.5525C4.00681 30.9275 4.00681 27.3025 3.97556 23.6775C3.97556 22.6775 4.16306 21.7869 4.80369 21.0212C3.39744 18.0681 3.94431 15.7556 6.52244 13.6775C7.13181 13.1931 7.77244 12.74 8.33494 12.2087C8.78806 11.7712 9.17869 11.2556 9.50681 10.7087C9.83494 10.1462 9.92869 9.56812 9.35056 8.97437C8.83494 8.44312 8.64744 7.69312 8.66306 6.91187C8.67869 6.05249 8.66306 5.19312 8.66306 4.33374C8.66306 2.61499 9.60056 1.34937 11.2099 0.83374C11.2881 0.818115 11.3662 0.77124 11.4443 0.724365C14.2568 0.724365 17.0693 0.724365 19.8662 0.724365ZM15.6943 22.1306C13.0693 22.1306 10.4287 22.1306 7.80369 22.1306C6.74119 22.1306 6.30369 22.5525 6.30369 23.615C6.30369 27.4119 6.30369 31.2087 6.30369 35.0056C6.30369 36.0994 6.72556 36.5212 7.83494 36.5212C13.0537 36.5212 18.2724 36.5212 23.5068 36.5212C24.6162 36.5212 25.0381 36.115 25.0381 35.0056C25.0381 31.2087 25.0381 27.4119 25.0381 23.615C25.0381 22.5525 24.6006 22.1306 23.5381 22.1306C20.9131 22.1306 18.3037 22.1306 15.6943 22.1306ZM15.6631 48.2087C13.0381 48.2087 10.3974 48.2087 7.77244 48.2087C6.74119 48.2087 6.30369 48.6462 6.28806 49.6462C6.28806 52.0369 6.28806 54.4431 6.28806 56.8337C6.28806 57.8181 6.74119 58.2556 7.72556 58.2556C9.24119 58.2556 10.7724 58.2712 12.2881 58.24C12.5849 58.24 12.9287 58.0994 13.1474 57.8962C14.6162 56.5681 16.5068 56.5369 18.0381 57.7712C18.3662 58.0369 18.8662 58.2087 19.2881 58.24C20.6943 58.3025 22.1006 58.2712 23.4912 58.2556C24.5849 58.2556 25.0068 57.8337 25.0068 56.7244C25.0068 54.3806 25.0068 52.0525 25.0068 49.7087C25.0068 48.5994 24.5849 48.1931 23.4912 48.1775C20.8974 48.2087 18.2881 48.2087 15.6631 48.2087ZM12.0381 10.4431C11.6787 12.3025 10.5381 13.5837 9.06931 14.6462C8.60056 14.99 8.16306 15.3806 7.69431 15.74C6.89744 16.3806 6.45994 17.2244 6.30369 18.2244C6.16306 19.1775 6.67869 19.7869 7.63181 19.8025C12.9756 19.8025 18.3037 19.8025 23.6474 19.8025C24.6006 19.8025 25.1162 19.1775 24.9756 18.24C24.8349 17.24 24.3974 16.3962 23.6006 15.7556C22.8974 15.1931 22.2099 14.6306 21.5068 14.0681C20.4599 13.2244 19.7256 12.1775 19.3818 10.865C19.3506 10.7244 19.2881 10.5837 19.2412 10.4431C16.8349 10.4431 14.4756 10.4431 12.0381 10.4431ZM15.6474 45.8806C18.2724 45.8806 20.9131 45.8806 23.5381 45.8806C24.5693 45.8806 25.0068 45.4431 25.0068 44.4275C25.0068 43.0525 25.0068 41.6619 25.0068 40.2869C25.0068 39.3025 24.5537 38.865 23.5693 38.865C18.2881 38.865 13.0068 38.865 7.72556 38.865C6.70994 38.865 6.28806 39.3025 6.27244 40.3337C6.27244 41.6775 6.27244 43.0212 6.27244 44.365C6.27244 45.4587 6.69431 45.8806 7.80369 45.8806C10.4287 45.8806 13.0381 45.8806 15.6474 45.8806ZM15.6006 8.09937C16.7412 8.09937 17.8974 8.11499 19.0381 8.09937C19.8349 8.08374 20.3193 7.61499 20.3349 6.83374C20.3506 6.02124 20.3506 5.19312 20.3349 4.38062C20.3193 3.55249 19.8506 3.08374 19.0224 3.08374C16.7881 3.06812 14.5537 3.06812 12.3037 3.08374C11.4443 3.08374 10.9912 3.56812 10.9756 4.44312C10.9599 5.20874 10.9599 5.95874 10.9756 6.72437C10.9912 7.66187 11.4443 8.11499 12.3818 8.11499C13.4599 8.09937 14.5224 8.09937 15.6006 8.09937Z" fill="#2E367B"/>
<path d="M50.2881 0.724365C50.4756 0.80249 50.6787 0.880615 50.8662 0.95874C52.1943 1.48999 53.0693 2.73999 53.0849 4.16187C53.1006 5.05249 53.0693 5.95874 53.0849 6.84937C53.1006 7.77124 52.7724 8.55249 52.2099 9.27124C52.0693 9.44312 51.9912 9.72437 52.0224 9.92749C52.1318 10.8025 52.5693 11.5056 53.2412 12.0525C53.9912 12.6775 54.7568 13.2712 55.5068 13.8962C57.0068 15.1462 57.8349 16.74 57.7412 18.6931C57.7099 19.3494 57.3349 20.0056 57.1318 20.6619C57.0849 20.8494 57.0381 21.115 57.1318 21.2556C57.5849 21.9431 57.7724 22.6931 57.7724 23.5212C57.7568 27.3962 57.7568 31.2712 57.7724 35.1619C57.7724 35.99 57.5693 36.7244 57.1318 37.4275C57.0381 37.5681 57.0537 37.865 57.1474 38.0056C57.5693 38.6619 57.7881 39.365 57.7724 40.1619C57.7568 41.6462 57.7568 43.1306 57.7724 44.5994C57.7881 45.3806 57.5849 46.115 57.1318 46.74C56.9443 46.99 56.9599 47.1462 57.1318 47.3962C57.5849 48.0056 57.7724 48.7087 57.7724 49.4744C57.7568 51.99 57.7724 54.5056 57.7724 57.0212C57.7724 59.1306 56.2724 60.6306 54.1631 60.6306C52.6006 60.6306 51.0381 60.615 49.4912 60.6306C48.5537 60.6462 47.7412 60.3337 47.0381 59.7244C46.3037 59.0837 45.7256 59.0837 45.0693 59.8181C44.5068 60.4431 43.8974 60.6619 43.0537 60.6306C41.3818 60.5681 39.6943 60.615 38.0224 60.615C35.8662 60.615 34.3818 59.1306 34.3662 56.99C34.3662 54.6306 34.3818 52.2712 34.3506 49.9119C34.3349 48.865 34.5068 47.8962 35.2412 47.0525C34.3818 46.0994 34.3193 44.9431 34.3662 43.7556C34.3974 42.74 34.3974 41.7244 34.3662 40.7087C34.3193 39.5994 34.4756 38.5681 35.2568 37.6775C34.4287 36.7556 34.3506 35.6775 34.3662 34.5525C34.3974 30.9275 34.3974 27.3025 34.3662 23.6775C34.3662 22.6775 34.5693 21.7869 35.1943 21.0212C33.7881 18.0681 34.3349 15.7712 36.9131 13.6775C37.5224 13.1931 38.1631 12.74 38.7256 12.2087C39.1787 11.7712 39.5693 11.2556 39.8974 10.7087C40.2256 10.1462 40.3193 9.56812 39.7412 8.97437C39.2256 8.42749 39.0381 7.69311 39.0537 6.91186C39.0693 6.05249 39.0537 5.19312 39.0537 4.33374C39.0537 2.61499 39.9912 1.34937 41.6006 0.83374C41.6943 0.80249 41.7724 0.755615 41.8506 0.70874C44.6787 0.724365 47.4756 0.724365 50.2881 0.724365ZM46.1162 22.1306C43.4912 22.1306 40.8506 22.1306 38.2256 22.1306C37.1318 22.1306 36.7099 22.5525 36.7099 23.6619C36.7099 27.4431 36.7099 31.2244 36.7099 35.0056C36.7099 36.115 37.1318 36.5369 38.2256 36.5369C43.4443 36.5369 48.6631 36.5369 53.8974 36.5369C55.0381 36.5369 55.4443 36.1306 55.4443 34.9744C55.4443 31.2087 55.4443 27.4587 55.4443 23.6931C55.4443 22.5525 55.0381 22.1462 53.8974 22.1462C51.3037 22.1306 48.7099 22.1306 46.1162 22.1306ZM46.1162 48.2087C43.4599 48.2087 40.8193 48.2087 38.1631 48.2087C37.1787 48.2087 36.7256 48.6619 36.7256 49.6306C36.7256 52.0212 36.7256 54.4275 36.7256 56.8181C36.7256 57.8337 37.1631 58.2712 38.1943 58.2712C39.7099 58.2712 41.2412 58.2869 42.7568 58.2556C43.0224 58.2556 43.3506 58.115 43.5537 57.9275C45.0381 56.5681 46.9287 56.5369 48.4912 57.8025C48.8037 58.0525 49.2881 58.2244 49.6943 58.24C51.1162 58.2869 52.5381 58.2556 53.9599 58.2556C55.0068 58.2556 55.4443 57.8181 55.4443 56.7556C55.4443 54.4119 55.4443 52.0837 55.4443 49.74C55.4443 48.5994 55.0381 48.1931 53.8818 48.1931C51.2881 48.2087 48.6943 48.2087 46.1162 48.2087ZM42.4599 10.4431C42.1006 12.3025 40.9599 13.5837 39.4912 14.6462C39.0224 14.99 38.5849 15.3806 38.1162 15.74C37.3193 16.3806 36.8818 17.2244 36.7256 18.2244C36.5849 19.1619 37.1006 19.7869 38.0537 19.7869C43.3974 19.7869 48.7256 19.7869 54.0693 19.7869C55.0224 19.7869 55.5381 19.1619 55.3974 18.2244C55.2568 17.2244 54.8193 16.3806 54.0224 15.74C53.3193 15.1775 52.6318 14.615 51.9287 14.0525C50.8818 13.2087 50.1474 12.1619 49.8037 10.8494C49.7724 10.7087 49.7099 10.5681 49.6631 10.4275C47.2568 10.4431 44.8974 10.4431 42.4599 10.4431ZM46.0381 45.8806C48.6943 45.8806 51.3349 45.8806 53.9912 45.8806C55.0068 45.8806 55.4443 45.4431 55.4443 44.4119C55.4443 43.0525 55.4443 41.6775 55.4443 40.3181C55.4443 39.2869 55.0068 38.8494 53.9912 38.8494C48.7099 38.8494 43.4287 38.8494 38.1474 38.8494C37.1631 38.8494 36.7256 39.3025 36.7256 40.2869C36.7256 41.6306 36.7256 42.9744 36.7256 44.3181C36.7256 45.4587 37.1318 45.865 38.2724 45.865C40.8506 45.8806 43.4443 45.8806 46.0381 45.8806ZM46.1162 3.06812C44.9912 3.06812 43.8662 3.05249 42.7256 3.06812C41.8818 3.08374 41.4131 3.53687 41.3974 4.36499C41.3818 5.17749 41.3818 6.00562 41.3974 6.81812C41.4131 7.61499 41.8818 8.09937 42.6787 8.09937C44.9287 8.11499 47.1943 8.11499 49.4443 8.09937C50.2724 8.09937 50.7412 7.61499 50.7412 6.78686C50.7568 6.00561 50.7568 5.22437 50.7412 4.45874C50.7256 3.55249 50.2724 3.09937 49.3662 3.08374C48.3037 3.05249 47.2099 3.06812 46.1162 3.06812Z" fill="#2E367B"/>
<path d="M15.6943 22.1306C18.3037 22.1306 20.9131 22.1306 23.5225 22.1306C24.585 22.1306 25.0225 22.5525 25.0225 23.615C25.0225 27.4119 25.0225 31.2087 25.0225 35.0056C25.0225 36.0994 24.6006 36.5212 23.4912 36.5212C18.2725 36.5212 13.0537 36.5212 7.81934 36.5212C6.70996 36.5212 6.28809 36.0994 6.28809 35.0056C6.28809 31.2087 6.28809 27.4119 6.28809 23.615C6.28809 22.5525 6.72559 22.1306 7.78809 22.1306C10.4287 22.1306 13.0537 22.1306 15.6943 22.1306ZM19.2725 30.6306C19.1006 30.115 19.0068 29.5681 18.7725 29.0994C18.1475 27.9119 17.4756 26.7556 16.8037 25.5837C16.1943 24.5212 15.1475 24.5212 14.5381 25.5994C13.8975 26.7244 13.2568 27.865 12.6162 29.0056C11.8975 30.2869 12.0537 31.8181 12.9912 32.9275C13.96 34.0681 15.5068 34.4744 16.9131 33.9431C18.2725 33.4431 19.1631 32.1462 19.2725 30.6306Z" fill="none"/>
<path d="M15.6631 48.2087C18.2725 48.2087 20.8818 48.2087 23.4912 48.2087C24.6006 48.2087 25.0068 48.6306 25.0068 49.74C25.0068 52.0837 25.0068 54.4119 25.0068 56.7556C25.0068 57.865 24.585 58.2712 23.4912 58.2869C22.085 58.2869 20.6787 58.3181 19.2881 58.2712C18.8662 58.2556 18.3662 58.0837 18.0381 57.8025C16.5068 56.5681 14.6162 56.5994 13.1475 57.9275C12.9287 58.115 12.585 58.2556 12.2881 58.2712C10.7725 58.3025 9.24121 58.2869 7.72559 58.2869C6.74121 58.2869 6.28809 57.8337 6.28809 56.865C6.28809 54.4744 6.28809 52.0681 6.28809 49.6775C6.28809 48.6619 6.74121 48.24 7.77246 48.24C10.4131 48.2087 13.0381 48.2087 15.6631 48.2087Z" fill="none"/>
<path d="M12.038 10.4431C14.4755 10.4431 16.8348 10.4431 19.2411 10.4431C19.288 10.5837 19.3505 10.7087 19.3817 10.865C19.7255 12.1775 20.4598 13.2244 21.5067 14.0681C22.2098 14.6306 22.913 15.1931 23.6005 15.7556C24.3973 16.3962 24.8348 17.24 24.9755 18.24C25.1161 19.1775 24.6005 19.8025 23.6473 19.8025C18.3036 19.8025 12.9755 19.8025 7.63172 19.8025C6.67859 19.8025 6.17859 19.1775 6.30359 18.2244C6.44422 17.2244 6.89734 16.3806 7.69422 15.74C8.14734 15.365 8.58484 14.99 9.06922 14.6462C10.538 13.5837 11.6786 12.3025 12.038 10.4431Z" fill="none"/>
<path d="M15.6475 45.8806C13.0381 45.8806 10.4287 45.8806 7.81934 45.8806C6.70996 45.8806 6.28809 45.4587 6.28809 44.365C6.28809 43.0212 6.28809 41.6775 6.28809 40.3337C6.28809 39.3025 6.72559 38.865 7.74121 38.865C13.0225 38.865 18.3037 38.865 23.585 38.865C24.5693 38.865 25.0225 39.3181 25.0225 40.2869C25.0225 41.6619 25.0225 43.0525 25.0225 44.4275C25.0225 45.4431 24.585 45.8806 23.5537 45.8806C20.9131 45.8806 18.2881 45.8806 15.6475 45.8806ZM18.0225 41.2087C16.8975 41.2087 15.7725 41.2087 14.6318 41.2087C13.8193 41.2087 13.3193 41.6462 13.3193 42.365C13.3193 43.0837 13.8037 43.5369 14.6162 43.5525C16.8662 43.5525 19.1318 43.5525 21.3818 43.5525C22.1787 43.5525 22.6787 43.0837 22.6787 42.365C22.6787 41.6619 22.1631 41.2244 21.3506 41.2087C20.2412 41.1931 19.1318 41.2087 18.0225 41.2087ZM9.80371 43.5369C10.46 43.5369 10.9756 43.0212 10.9756 42.3494C10.9756 41.7087 10.4756 41.2087 9.83496 41.1931C9.16309 41.1775 8.64746 41.6775 8.64746 42.3494C8.63184 43.0212 9.14746 43.5369 9.80371 43.5369Z" fill="none"/>
<path d="M15.6007 8.09937C14.5226 8.09937 13.4601 8.09937 12.3819 8.09937C11.4444 8.09937 10.9757 7.64624 10.9757 6.70874C10.9757 5.94312 10.9601 5.19312 10.9757 4.42749C10.9913 3.55249 11.4444 3.06812 12.3038 3.06812C14.5382 3.05249 16.7726 3.05249 19.0226 3.06812C19.8507 3.06812 20.3194 3.53687 20.3351 4.36499C20.3507 5.17749 20.3507 6.00562 20.3351 6.81812C20.3194 7.61499 19.8351 8.08374 19.0382 8.08374C17.8976 8.11499 16.7413 8.09937 15.6007 8.09937Z" fill="none"/>
<path d="M46.1162 22.1306C48.71 22.1306 51.3037 22.1306 53.8975 22.1306C55.0381 22.1306 55.4443 22.5369 55.4443 23.6775C55.4443 27.4431 55.4443 31.1931 55.4443 34.9587C55.4443 36.0994 55.0381 36.5212 53.8975 36.5212C48.6787 36.5212 43.46 36.5212 38.2256 36.5212C37.1318 36.5212 36.71 36.0994 36.71 34.99C36.71 31.2087 36.71 27.4275 36.71 23.6462C36.71 22.5369 37.1162 22.115 38.2256 22.115C40.8662 22.1306 43.4912 22.1306 46.1162 22.1306ZM49.6943 30.6462C49.5225 30.115 49.4131 29.5681 49.1475 29.0681C48.5381 27.8962 47.8662 26.7556 47.21 25.5994C46.6006 24.5212 45.5537 24.5212 44.9443 25.5994C44.2881 26.7244 43.6631 27.865 43.0225 29.0056C42.3037 30.2869 42.4443 31.8181 43.3818 32.9275C44.335 34.0681 45.8975 34.4744 47.3037 33.9587C48.6943 33.4431 49.585 32.1619 49.6943 30.6462Z" fill="none"/>
<path d="M46.1162 48.2087C48.71 48.2087 51.3037 48.2087 53.8975 48.2087C55.0381 48.2087 55.4443 48.615 55.46 49.7556C55.46 52.0994 55.46 54.4275 55.46 56.7712C55.46 57.8337 55.0381 58.2712 53.9756 58.2712C52.5537 58.2712 51.1318 58.3025 49.71 58.2556C49.3037 58.24 48.8193 58.0681 48.5068 57.8181C46.9443 56.5525 45.0693 56.5837 43.5693 57.9431C43.3662 58.1306 43.0381 58.2712 42.7725 58.2712C41.2568 58.3025 39.7256 58.2869 38.21 58.2869C37.1787 58.2869 36.7412 57.8494 36.7412 56.8337C36.7412 54.4431 36.7412 52.0369 36.7412 49.6462C36.7412 48.6619 37.1943 48.2244 38.1787 48.2244C40.8037 48.2087 43.46 48.2087 46.1162 48.2087Z" fill="none"/>
<path d="M42.4598 10.4431C44.8973 10.4431 47.2567 10.4431 49.663 10.4431C49.7098 10.5837 49.7723 10.7087 49.8036 10.865C50.1473 12.1775 50.8817 13.2244 51.9286 14.0681C52.6317 14.6306 53.3348 15.1931 54.0223 15.7556C54.8192 16.3962 55.2567 17.24 55.3973 18.24C55.538 19.1775 55.0223 19.8025 54.0692 19.8025C48.7255 19.8025 43.3973 19.8025 38.0536 19.8025C37.1005 19.8025 36.6005 19.1775 36.7255 18.24C36.8661 17.24 37.3192 16.3962 38.1161 15.7556C38.5692 15.3806 39.0067 15.0056 39.4911 14.6619C40.9598 13.5837 42.1005 12.3025 42.4598 10.4431Z" fill="none"/>
<path d="M46.0381 45.8806C43.4443 45.8806 40.8506 45.8806 38.2725 45.8806C37.1318 45.8806 36.7256 45.4744 36.7256 44.3337C36.7256 42.99 36.7256 41.6462 36.7256 40.3025C36.7256 39.3181 37.1787 38.865 38.1475 38.865C43.4287 38.865 48.71 38.865 53.9912 38.865C55.0068 38.865 55.4443 39.3025 55.4443 40.3337C55.4443 41.6931 55.4443 43.0681 55.4443 44.4275C55.4443 45.4587 55.0068 45.8962 53.9912 45.8962C51.335 45.8806 48.6787 45.8806 46.0381 45.8806ZM48.3975 43.5369C49.5225 43.5369 50.6475 43.5369 51.7881 43.5369C52.6006 43.5369 53.1006 43.0837 53.1006 42.3806C53.1006 41.6619 52.6006 41.2087 51.8037 41.2087C49.5537 41.2087 47.2881 41.2087 45.0381 41.2087C44.2412 41.2087 43.7412 41.6775 43.7568 42.3962C43.7725 43.0837 44.2568 43.5369 45.0225 43.5369C46.1318 43.5369 47.2725 43.5369 48.3975 43.5369ZM39.0693 42.365C39.0693 43.0212 39.585 43.5369 40.2568 43.5369C40.9131 43.5369 41.4287 43.0056 41.4131 42.3337C41.3975 41.6931 40.8975 41.2087 40.2568 41.1931C39.5693 41.1931 39.0693 41.7087 39.0693 42.365Z" fill="none"/>
<path d="M46.1162 3.06812C47.21 3.06812 48.3037 3.06812 49.3818 3.06812C50.2881 3.06812 50.7412 3.53687 50.7568 4.44312C50.7725 5.22437 50.7725 6.00562 50.7568 6.77124C50.7412 7.59937 50.2725 8.08374 49.46 8.08374C47.21 8.09936 44.9443 8.09936 42.6943 8.08374C41.8975 8.08374 41.4287 7.59937 41.4131 6.80249C41.3975 5.98999 41.3975 5.16187 41.4131 4.34937C41.4287 3.52124 41.8975 3.06812 42.7412 3.05249C43.8662 3.05249 44.9912 3.06812 46.1162 3.06812Z" fill="none"/>
<path d="M19.2723 30.6306C19.1629 32.1463 18.2723 33.4275 16.8973 33.9588C15.5066 34.49 13.9441 34.0838 12.9754 32.9431C12.0379 31.8338 11.8816 30.3025 12.6004 29.0213C13.241 27.8806 13.8816 26.74 14.5223 25.615C15.1316 24.5369 16.1785 24.5369 16.7879 25.5994C17.4598 26.7713 18.1316 27.9275 18.7566 29.115C19.0066 29.5838 19.1004 30.1306 19.2723 30.6306ZM15.6629 28.4119C15.2723 29.0838 14.9285 29.6619 14.616 30.2556C14.3816 30.7244 14.5379 31.2713 14.9754 31.5994C15.4129 31.9275 15.9441 31.9119 16.3816 31.5838C16.8035 31.24 16.9598 30.6931 16.7098 30.24C16.3973 29.6463 16.0535 29.0838 15.6629 28.4119Z" fill="#E31E24"/>
<path d="M18.0225 41.2087C19.1318 41.2087 20.2412 41.2087 21.3506 41.2087C22.1631 41.2087 22.6631 41.6462 22.6787 42.365C22.6943 43.0837 22.1943 43.5525 21.3818 43.5525C19.1318 43.5525 16.8662 43.5525 14.6162 43.5525C13.8193 43.5525 13.3193 43.0837 13.3193 42.365C13.3193 41.6619 13.8193 41.2087 14.6318 41.2087C15.7725 41.1931 16.8975 41.2087 18.0225 41.2087Z" fill="#E31E24"/>
<path d="M9.80371 43.5368C9.14746 43.5368 8.63184 43.0212 8.63184 42.365C8.63184 41.7087 9.16309 41.1931 9.81934 41.2087C10.46 41.2243 10.9443 41.7243 10.96 42.365C10.9912 43.0212 10.4756 43.5368 9.80371 43.5368Z" fill="#E31E24"/>
<path d="M49.6943 30.6462C49.5693 32.1619 48.6787 33.4431 47.288 33.9587C45.8818 34.4744 44.3349 34.0681 43.3662 32.9275C42.4287 31.8181 42.2881 30.2869 43.0068 29.0056C43.6474 27.865 44.288 26.7244 44.9287 25.5994C45.538 24.5369 46.5849 24.5369 47.1943 25.5994C47.8505 26.74 48.5224 27.8962 49.1318 29.0681C49.4131 29.5525 49.5224 30.115 49.6943 30.6462ZM46.0849 28.4119C45.6943 29.0994 45.3506 29.6619 45.0381 30.2712C44.7724 30.7869 44.9756 31.2244 45.3662 31.5681C45.7881 31.9431 46.3818 31.9431 46.8037 31.5681C47.1943 31.2244 47.4131 30.7869 47.1474 30.2712C46.8193 29.6775 46.4756 29.0994 46.0849 28.4119Z" fill="#E31E24"/>
<path d="M48.3973 43.5369C47.2723 43.5369 46.1473 43.5369 45.0067 43.5369C44.2411 43.5369 43.7567 43.0837 43.7411 42.3962C43.7255 41.6775 44.2255 41.2087 45.0223 41.2087C47.2723 41.2087 49.538 41.2087 51.788 41.2087C52.5848 41.2087 53.0848 41.6775 53.0848 42.3806C53.0848 43.0837 52.5848 43.5369 51.7723 43.5369C50.6473 43.5369 49.5223 43.5369 48.3973 43.5369Z" fill="#E31E24"/>
<path d="M39.0693 42.365C39.0693 41.6931 39.585 41.1931 40.2568 41.1931C40.8975 41.1931 41.3975 41.6931 41.4131 42.3337C41.4287 43.0056 40.9287 43.5212 40.2568 43.5369C39.585 43.5369 39.0693 43.0369 39.0693 42.365Z" fill="#E31E24"/>
<path d="M15.6633 28.4119C16.0539 29.0837 16.3977 29.6462 16.6946 30.2244C16.9446 30.6931 16.7883 31.24 16.3664 31.5681C15.9446 31.8962 15.3977 31.9119 14.9602 31.5837C14.5227 31.2556 14.3664 30.7087 14.6008 30.24C14.9289 29.6619 15.2727 29.0837 15.6633 28.4119Z" fill="none"/>
<path d="M46.0851 28.4119C46.4757 29.0994 46.8351 29.6775 47.1476 30.2712C47.4132 30.7869 47.1945 31.2244 46.8039 31.5681C46.382 31.9431 45.7882 31.9275 45.3664 31.5681C44.9757 31.2244 44.7726 30.7869 45.0382 30.2712C45.3351 29.6619 45.6945 29.0994 46.0851 28.4119Z" fill="none"/>
</g>
<defs>
<clipPath id="clip0_56_1184">
<rect width="60" height="60" fill="none" transform="translate(0.819336 0.724365)"/>
</clipPath>
</defs>
</svg>
