<svg width="61" height="61" viewBox="0 0 61 61" fill="none" xmlns="http://www.w3.org/2000/svg">
<g clip-path="url(#clip0_56_1170)">
<path d="M32.8662 0.724365C42.1787 0.724365 51.5068 0.724365 60.8193 0.724365C60.8193 20.7244 60.8193 40.7244 60.8193 60.7244C40.8193 60.7244 20.8193 60.7244 0.819336 60.7244C0.819336 51.4119 0.819336 42.0837 0.819336 32.7712C0.850586 32.9431 0.897461 33.115 0.928711 33.2712C1.19434 34.8494 1.33496 36.4431 1.72559 37.9744C5.83496 53.99 21.6631 63.5525 37.7412 59.7869C52.2881 56.3806 62.9443 42.0837 60.3037 25.74C59.5225 20.9119 57.6162 16.5369 54.6631 12.6306C54.5693 12.5056 54.4912 12.365 54.3818 12.1775C55.0225 12.1775 55.5693 12.1931 56.1162 12.1775C56.835 12.1619 57.3193 11.7087 57.3193 11.0212C57.335 10.3337 56.8662 9.84937 56.1475 9.84937C54.6631 9.83374 53.1787 9.83374 51.71 9.84937C51.0381 9.84937 50.5537 10.3181 50.5537 10.99C50.5225 12.49 50.5225 13.99 50.5537 15.49C50.5693 16.1462 51.1162 16.6306 51.7412 16.615C52.3818 16.615 52.8506 16.1462 52.8818 15.4587C52.8975 15.0994 52.8818 14.74 52.8818 14.2244C53.1006 14.49 53.1943 14.5994 53.2881 14.7244C58.0693 21.6775 59.5381 29.2869 57.4912 37.4587C54.6787 48.74 44.9912 57.0056 33.4287 58.1306C28.6006 58.5994 23.96 57.8337 19.5381 55.8494C7.47559 50.4119 0.991211 37.4744 3.85059 24.6306C6.67871 11.9275 18.1318 2.88062 31.1631 3.06812C32.1318 3.08374 33.1006 3.20874 34.0693 3.27124C34.7725 3.31812 35.335 2.89624 35.4287 2.27124C35.5225 1.58374 35.1006 1.06812 34.3506 0.943115C33.8662 0.86499 33.3662 0.80249 32.8662 0.724365ZM50.7412 30.6462C50.6631 35.8494 49.0225 40.4744 45.3975 44.2244C39.5068 50.3025 32.3818 52.0681 24.335 49.5525C16.8662 47.2087 11.4443 40.115 10.8818 32.3494C10.5693 27.99 11.46 23.9119 13.7568 20.1775C14.2256 19.4119 14.1006 18.7244 13.46 18.3494C12.835 17.99 12.1943 18.2087 11.7568 18.9431C8.78809 23.865 7.75684 29.1775 8.83496 34.8181C11.21 47.3025 23.3037 55.2087 35.7256 52.4275C48.8193 49.49 56.3818 35.7244 51.7256 23.0369C47.3193 11.0212 34.1631 5.23999 22.2881 10.0056C21.1162 10.4744 20.0225 11.115 18.9131 11.7244C18.3037 12.0681 18.1475 12.7869 18.4756 13.3337C18.7881 13.8806 19.4443 14.0525 20.0537 13.7556C20.2256 13.6619 20.3818 13.5525 20.5537 13.4587C24.7256 11.0212 29.21 10.115 33.9756 10.8962C43.6162 12.49 50.71 20.8806 50.7412 30.6462ZM30.7725 34.7087C33.5693 34.6931 35.5225 31.8962 34.5225 29.2712C34.3662 28.865 34.4287 28.6619 34.7256 28.365C37.1475 25.9587 39.5537 23.5525 41.96 21.1462C42.1318 20.9744 42.3193 20.7869 42.46 20.5837C42.8975 19.9119 42.585 19.0994 41.8193 18.8494C41.2256 18.6462 40.8193 18.9587 40.4287 19.3494C37.9756 21.8025 35.5225 24.2556 33.085 26.7087C32.8037 26.99 32.6006 27.0994 32.1943 26.9275C31.2412 26.5212 30.2568 26.5369 29.3037 26.9431C28.9756 27.0837 28.7881 27.0212 28.5537 26.7869C27.4131 25.6306 26.2725 24.49 25.1162 23.365C24.8975 23.1619 24.6318 22.9431 24.3506 22.8806C23.8037 22.74 23.335 22.9431 23.0693 23.4587C22.8037 23.99 22.8975 24.4744 23.3193 24.8962C24.4756 26.0525 25.6162 27.2244 26.8037 28.365C27.1006 28.6619 27.1787 28.8806 27.0225 29.3181C26.0068 31.8962 27.9756 34.7087 30.7725 34.7087ZM31.9443 14.7712C31.9443 14.5056 31.96 14.2244 31.9443 13.9587C31.8975 13.3181 31.4443 12.8806 30.8193 12.865C30.1943 12.8494 29.6787 13.2712 29.6318 13.8962C29.585 14.4587 29.585 15.0212 29.6318 15.5837C29.6787 16.2087 30.1943 16.6306 30.8193 16.615C31.4443 16.5994 31.8975 16.1619 31.9443 15.5212C31.9443 15.2869 31.9443 15.0369 31.9443 14.7712ZM14.835 31.8181C15.1006 31.8181 15.3818 31.8337 15.6475 31.8181C16.3037 31.7556 16.7412 31.24 16.7256 30.5994C16.71 29.9744 16.2568 29.5212 15.6162 29.49C15.1162 29.4744 14.6006 29.4744 14.1006 29.49C13.4287 29.5212 12.9756 29.99 12.9756 30.6462C12.9756 31.2869 13.4287 31.7712 14.1006 31.8181C14.335 31.8337 14.585 31.8181 14.835 31.8181ZM46.6318 31.8494C46.8975 31.8494 47.1787 31.865 47.4443 31.8494C48.085 31.8181 48.5381 31.3494 48.5537 30.7244C48.5693 30.0994 48.1475 29.5681 47.5225 29.5212C46.96 29.4744 46.3975 29.4744 45.835 29.5212C45.21 29.5681 44.7881 30.0837 44.7881 30.7087C44.8037 31.3337 45.2256 31.8025 45.8662 31.8494C46.1318 31.8494 46.3818 31.8337 46.6318 31.8494ZM31.9131 46.5837C31.9131 46.3181 31.9287 46.0369 31.9131 45.7712C31.8506 45.115 31.335 44.6775 30.6943 44.7087C30.0693 44.7244 29.6162 45.1775 29.6006 45.8337C29.585 46.3337 29.585 46.8494 29.6006 47.3494C29.6318 48.0369 30.1006 48.4744 30.7568 48.4744C31.3975 48.4744 31.8818 48.0212 31.9287 47.3494C31.9287 47.0837 31.9131 46.8337 31.9131 46.5837ZM40.0225 3.05249C40.0225 2.38062 39.5225 1.89624 38.8506 1.89624C38.21 1.89624 37.71 2.39624 37.6943 3.03687C37.6787 3.66187 38.2256 4.22437 38.8662 4.23999C39.5068 4.22437 40.0225 3.70874 40.0225 3.05249ZM16.96 15.7087C16.96 15.0369 16.4443 14.5369 15.7881 14.5369C15.1475 14.5525 14.6162 15.0994 14.6318 15.74C14.6475 16.3806 15.1475 16.865 15.7881 16.865C16.46 16.865 16.96 16.3806 16.96 15.7087Z" fill="none"/>
<path d="M32.8662 0.724365C33.3662 0.80249 33.8662 0.86499 34.3506 0.943115C35.1006 1.06812 35.5225 1.59937 35.4287 2.27124C35.335 2.89624 34.7725 3.31812 34.0693 3.27124C33.1006 3.20874 32.1318 3.08374 31.1631 3.06812C18.1318 2.88062 6.67871 11.9275 3.85059 24.6306C0.991211 37.4744 7.47558 50.4119 19.5225 55.8494C23.9443 57.8494 28.585 58.5994 33.4131 58.1306C44.9756 57.0056 54.6631 48.74 57.4756 37.4587C59.5225 29.2869 58.0537 21.6775 53.2725 14.7244C53.1943 14.5994 53.085 14.49 52.8662 14.2244C52.8662 14.7556 52.8818 15.0994 52.8662 15.4587C52.835 16.1462 52.3662 16.5994 51.7256 16.615C51.1006 16.615 50.5537 16.1462 50.5381 15.49C50.5068 13.99 50.5068 12.49 50.5381 10.99C50.5537 10.3181 51.0225 9.86499 51.6943 9.84937C53.1787 9.83374 54.6631 9.83374 56.1318 9.84937C56.8506 9.84937 57.3037 10.3494 57.3037 11.0212C57.2881 11.6931 56.8193 12.1619 56.1006 12.1775C55.5537 12.1931 55.0068 12.1775 54.3662 12.1775C54.4912 12.365 54.5537 12.5056 54.6475 12.6306C57.6006 16.5369 59.5068 20.9119 60.2881 25.74C62.9287 42.0837 52.2725 56.3806 37.7256 59.7869C21.6631 63.5525 5.83496 53.99 1.72559 37.99C1.33496 36.4587 1.19434 34.8494 0.928711 33.2869C0.897461 33.115 0.850586 32.9431 0.819336 32.7869C0.819336 31.3806 0.819336 29.9744 0.819336 28.5837C0.913086 27.8962 0.991211 27.1931 1.08496 26.5056C1.92871 20.7869 4.16309 15.6775 7.94433 11.2869C12.585 5.88062 18.4131 2.48999 25.4287 1.20874C26.4912 1.02124 27.5693 0.89624 28.6475 0.73999C30.0537 0.724365 31.46 0.724365 32.8662 0.724365Z" fill="#2E367B"/>
<path d="M28.6631 0.724365C27.585 0.880615 26.5068 1.00562 25.4443 1.19312C18.4131 2.47437 12.6006 5.86499 7.95996 11.2712C4.16309 15.6619 1.92871 20.7712 1.08496 26.49C0.991211 27.1775 0.913086 27.8806 0.819336 28.5681C0.819336 19.2869 0.819336 10.0212 0.819336 0.724365C10.1006 0.724365 19.3818 0.724365 28.6631 0.724365Z" fill="none"/>
<path d="M50.7414 30.6462C50.7101 20.8806 43.6164 12.49 33.9914 10.9119C29.2258 10.1306 24.7414 11.0369 20.5695 13.4744C20.3976 13.5681 20.2414 13.6775 20.0695 13.7712C19.4601 14.0681 18.8195 13.8962 18.4914 13.3494C18.1633 12.7869 18.3195 12.0681 18.9289 11.74C20.0383 11.1306 21.132 10.49 22.3039 10.0212C34.1789 5.25561 47.3351 11.0369 51.7258 23.0369C56.382 35.7244 48.8039 49.49 35.7258 52.4275C23.3039 55.2087 11.2101 47.3025 8.83514 34.8181C7.75702 29.1775 8.78827 23.865 11.757 18.9431C12.2101 18.1931 12.8508 17.99 13.4601 18.3494C14.1008 18.7244 14.2258 19.4119 13.757 20.1775C11.4601 23.9275 10.5695 27.99 10.882 32.3494C11.4445 40.115 16.8664 47.2087 24.3351 49.5525C32.382 52.0837 39.507 50.3181 45.3976 44.2244C49.007 40.4744 50.6633 35.8494 50.7414 30.6462Z" fill="#2E367B"/>
<path d="M30.7729 34.7087C27.9916 34.7243 26.0073 31.8962 26.9916 29.2868C27.1479 28.865 27.0698 28.6306 26.7729 28.3337C25.601 27.1931 24.4448 26.0212 23.2885 24.865C22.8666 24.4431 22.7729 23.9431 23.0385 23.4275C23.3041 22.9118 23.7729 22.7244 24.3198 22.8494C24.601 22.9275 24.8823 23.1306 25.0854 23.3337C26.2416 24.4587 27.3823 25.615 28.5229 26.7556C28.7573 26.99 28.9448 27.0525 29.2729 26.9118C30.226 26.5056 31.2104 26.49 32.1635 26.8962C32.5698 27.0681 32.7885 26.9431 33.0541 26.6775C35.4916 24.2087 37.9604 21.7712 40.3979 19.3181C40.7885 18.9275 41.1948 18.6306 41.7885 18.8181C42.5541 19.0681 42.8666 19.8806 42.4291 20.5525C42.2885 20.7556 42.101 20.9431 41.9291 21.115C39.5229 23.5212 37.1166 25.9431 34.6948 28.3337C34.4135 28.615 34.351 28.8337 34.4916 29.24C35.5229 31.8806 33.5698 34.6931 30.7729 34.7087ZM30.7729 29.0056C29.8198 29.0056 29.101 29.7087 29.101 30.6462C29.101 31.5837 29.8041 32.3181 30.7416 32.3181C31.6791 32.3181 32.4135 31.615 32.4135 30.6775C32.4291 29.74 31.7104 29.0212 30.7729 29.0056Z" fill="#E31E24"/>
<path d="M31.9443 14.7712C31.9443 15.0212 31.96 15.2712 31.9443 15.5212C31.8975 16.1775 31.4443 16.5994 30.8193 16.615C30.1943 16.6306 29.6787 16.2087 29.6318 15.5837C29.585 15.0212 29.585 14.4587 29.6318 13.8962C29.6787 13.2712 30.1943 12.8494 30.8193 12.865C31.4443 12.8806 31.8975 13.3025 31.9443 13.9587C31.96 14.24 31.9443 14.5056 31.9443 14.7712Z" fill="#E31E24"/>
<path d="M14.835 31.8181C14.585 31.8181 14.335 31.8337 14.085 31.8181C13.4131 31.7712 12.96 31.2869 12.96 30.6462C12.96 29.99 13.4131 29.5212 14.085 29.49C14.585 29.4744 15.1006 29.4744 15.6006 29.49C16.2568 29.5212 16.6943 29.9744 16.71 30.5994C16.7256 31.2556 16.2881 31.7556 15.6318 31.8181C15.3818 31.8494 15.1162 31.8181 14.835 31.8181Z" fill="#E31E24"/>
<path d="M46.6318 31.8337C46.3818 31.8337 46.1318 31.8494 45.8818 31.8337C45.2412 31.7869 44.8037 31.3337 44.8037 30.6931C44.8037 30.0681 45.2256 29.5525 45.8506 29.5056C46.4131 29.4587 46.9756 29.4587 47.5381 29.5056C48.1631 29.5525 48.585 30.0837 48.5693 30.7087C48.5537 31.3337 48.1162 31.7869 47.46 31.8337C47.1787 31.8494 46.9131 31.8494 46.6318 31.8337Z" fill="#E31E24"/>
<path d="M31.9131 46.5837C31.9131 46.8337 31.9287 47.0837 31.9131 47.3337C31.8662 48.0056 31.3818 48.4587 30.7412 48.4587C30.085 48.4587 29.6162 48.0212 29.585 47.3337C29.5693 46.8337 29.5693 46.3181 29.585 45.8181C29.6162 45.1618 30.0693 44.7243 30.6787 44.6931C31.335 44.6775 31.835 45.115 31.8975 45.7556C31.9443 46.0368 31.9131 46.3181 31.9131 46.5837Z" fill="#E31E24"/>
<path d="M40.0228 3.05249C40.0228 3.72436 39.5072 4.23999 38.8509 4.22436C38.2103 4.22436 37.6634 3.64624 37.679 3.02124C37.6947 2.39624 38.2103 1.89624 38.8353 1.88062C39.5228 1.88062 40.0228 2.36499 40.0228 3.05249Z" fill="#E31E24"/>
<path d="M16.9603 15.7087C16.9603 16.3806 16.4603 16.8806 15.7884 16.865C15.1478 16.865 14.6478 16.365 14.6322 15.74C14.6165 15.0993 15.1478 14.5525 15.7884 14.5368C16.4447 14.5212 16.9603 15.0368 16.9603 15.7087Z" fill="#E31E24"/>
<path d="M30.7727 29.0056C31.7102 29.0056 32.429 29.7244 32.4133 30.6775C32.4133 31.615 31.679 32.3337 30.7415 32.3181C29.804 32.3181 29.0852 31.5837 29.1008 30.6462C29.1165 29.7087 29.8352 29.0056 30.7727 29.0056Z" fill="none"/>
</g>
<defs>
<clipPath id="clip0_56_1170">
<rect width="60" height="60" fill="none" transform="translate(0.819336 0.724365)"/>
</clipPath>
</defs>
</svg>
