<svg width="87" height="79" viewBox="0 0 87 79" fill="none" xmlns="http://www.w3.org/2000/svg">
<circle cx="39.9844" cy="39.1934" r="39" fill="#EEEEEE"/>
<g clip-path="url(#clip0_301_1349)">
<path d="M66.6181 58.5592C64.3011 60.1446 62.1059 60.2665 59.7889 58.6812C58.9352 58.0714 57.8376 58.0714 56.984 58.6812C54.7889 60.2665 52.5937 60.1446 50.2767 58.5592C48.8132 60.9982 47.4718 63.4373 46.1303 65.8763C44.9108 67.9495 43.6913 70.1446 42.4718 72.2177C42.1059 72.7056 41.4962 73.1934 40.8864 73.1934C40.5206 73.1934 40.0328 72.4616 39.7889 71.8519C39.1791 69.9007 38.6913 67.8275 38.0815 65.6324C36.2523 66.1202 34.545 66.608 32.7157 67.0958C31.862 67.3397 30.8864 67.9495 30.1547 66.9738C29.423 65.9982 30.2767 65.2665 30.7645 64.4129C33.6913 59.2909 36.6181 54.169 39.6669 48.9251C39.1791 48.6812 38.6913 48.3153 38.0815 48.1934C34.9108 47.0958 33.4474 44.2909 34.6669 41.2421C35.2767 39.7787 34.9108 38.8031 33.8133 37.7055C31.6181 35.5104 31.6181 32.3397 33.8133 30.2665C34.9108 29.169 35.1547 28.0714 34.6669 26.608C33.5693 23.6812 35.0328 20.8763 37.9596 19.9007C39.423 19.4129 40.1547 18.4373 40.2767 16.9738C40.5206 13.9251 43.2035 11.8519 46.1303 12.3397C47.7157 12.5836 48.4474 12.2177 49.3011 10.8763C51.0084 8.0714 54.0572 7.33969 56.7401 9.16896C57.9596 10.0226 59.0572 10.0226 60.2767 9.16896C63.0815 7.33969 66.0084 8.0714 67.8376 10.8763C68.5693 12.2177 69.423 12.5836 70.8864 12.3397C73.9352 11.8519 76.6181 13.9251 76.862 16.9738C76.984 18.4373 77.7157 19.4129 79.0572 19.9007C82.1059 20.8763 83.4474 23.6812 82.3498 26.7299C81.7401 28.1934 82.1059 29.169 83.2035 30.2665C85.5206 32.4616 85.5206 35.6324 83.2035 37.8275C82.1059 38.8031 81.862 39.9007 82.4718 41.3641C83.5694 44.2909 82.1059 47.2177 79.1791 48.1934C78.6913 48.3153 78.2035 48.6812 77.5937 48.9251C78.3254 50.2665 79.0572 51.3641 79.6669 52.5836C82.1059 56.7299 84.545 60.8763 86.862 65.0226C87.1059 65.5104 87.2279 66.3641 87.1059 66.8519C86.7401 67.7055 85.8864 67.4617 85.1547 67.2177C83.2035 66.7299 81.2523 66.1202 79.1791 65.6324C78.5693 67.7055 77.9596 69.7787 77.4718 71.7299C77.3498 72.4616 76.984 73.1934 76.2523 73.0714C75.7645 73.0714 75.0328 72.4616 74.7889 71.9738C72.3498 67.8275 69.9108 63.6812 67.5937 59.5348C67.1059 59.2909 66.862 58.9251 66.6181 58.5592ZM71.4962 53.0714C73.2035 53.1934 74.3011 52.2177 74.3011 50.6324C74.423 48.3153 75.6425 46.608 77.8376 45.8763C80.0328 45.1446 80.5206 44.047 79.7889 41.8519C79.0572 39.7787 79.423 37.9495 81.0084 36.486C82.7157 34.6568 82.7157 33.5592 81.0084 31.8519C79.423 30.2665 79.0572 28.4373 79.7889 26.3641C80.5206 24.169 80.0328 23.0714 77.8376 22.3397C75.7645 21.608 74.423 19.7787 74.3011 17.5836C74.1791 15.8763 72.9596 14.7787 71.2523 15.0226C68.6913 15.3885 66.862 14.5348 65.5206 12.3397C64.545 10.7543 63.2035 10.3885 61.6181 11.3641C59.423 12.8275 57.3498 12.8275 55.2767 11.3641C53.8132 10.3885 52.3498 10.7543 51.4962 12.2177C50.1547 14.5348 48.3254 15.3885 45.7645 15.0226C44.0572 14.7787 42.8376 15.8763 42.7157 17.4616C42.5937 19.9007 41.2523 21.486 39.0572 22.2177C36.984 22.9495 36.3742 24.047 37.1059 26.1202C37.8376 28.1934 37.4718 30.1446 35.8864 31.7299C34.1791 33.4373 34.1791 34.6568 35.8864 36.2421C37.4718 37.8275 37.8376 39.6568 37.1059 41.608C36.2523 44.047 36.7401 44.9007 39.1791 45.7543C41.2523 46.486 42.3498 47.9495 42.5937 50.1446C42.8376 52.4617 43.6913 53.3153 45.8864 53.0714C48.3254 52.8275 50.1547 53.6812 51.3742 55.7543C52.3498 57.3397 53.8132 57.7056 55.2767 56.608C57.3498 55.1446 59.423 55.1446 61.4962 56.608C62.9596 57.5836 64.423 57.2177 65.3986 55.7543C66.1303 54.4129 67.1059 53.4373 68.5693 53.0714C69.545 52.9495 70.5206 53.0714 71.4962 53.0714ZM33.6913 64.169C35.2767 63.8031 36.6181 63.4373 37.8376 63.0714C39.423 62.5836 39.9108 62.8275 40.2767 64.5348C40.6425 65.8763 41.0084 67.0958 41.3742 68.6812C43.8132 64.4129 46.1303 60.3885 48.5693 56.2421C48.5693 56.1202 48.4474 55.9982 48.4474 55.8763C47.4718 55.7543 46.6181 55.6324 45.6425 55.7543C43.6913 55.8763 42.1059 55.2665 41.0084 53.5592C40.7645 53.3153 40.6425 52.9495 40.3986 52.5836C38.2035 56.3641 36.0084 60.1446 33.6913 64.169ZM76.6181 52.7056C76.0084 53.4373 75.3986 54.169 74.7889 54.6568C73.6913 55.6324 72.3498 55.7543 71.0084 55.6324C70.1547 55.5104 69.1791 55.3885 68.3254 56.3641C70.6425 60.3885 72.9596 64.4129 75.2767 68.4373C75.3986 68.3153 75.5206 68.3153 75.5206 68.1934C75.8864 67.0958 76.1303 65.8763 76.4962 64.7787C77.1059 62.7056 77.3498 62.5836 79.423 63.0714C80.6425 63.4373 81.7401 63.6812 83.2035 64.047C80.8864 60.1446 78.8133 56.3641 76.6181 52.7056Z" fill="#2E367B"/>
<path d="M58.447 15.9982C67.1056 16.2421 74.4226 22.3397 76.008 30.9982C77.4714 39.047 72.9592 47.3397 65.0324 50.5104C64.1787 50.8763 63.447 50.9982 62.9592 50.0226C62.4714 48.9251 63.2031 48.5592 64.0568 48.1933C74.0568 43.9251 76.9836 31.8519 69.6665 23.8031C65.5202 19.169 60.2763 17.7055 54.4226 19.4129C48.569 21.1202 44.7885 25.0226 43.569 31.1202C42.1056 38.4373 45.8861 45.2665 52.8373 48.1933C54.0568 48.6812 54.5446 49.6568 53.8129 50.3885C53.3251 50.9982 52.5934 50.8763 51.9836 50.6324C45.6422 47.8275 41.8617 43.0714 40.8861 36.1202C39.7885 27.3397 45.5202 19.6568 52.9592 17.3397C54.6665 16.608 56.6178 16.3641 58.447 15.9982Z" fill="#E31E24"/>
<path d="M58.4478 39.5348C56.7405 40.7543 55.1552 41.8519 53.5698 43.0714C52.96 43.5592 52.3503 43.9251 51.6186 43.3153C50.8869 42.7055 51.1308 42.0958 51.3747 41.3641C51.8625 39.7787 52.3503 38.1933 52.96 36.608C53.2039 35.9982 53.082 35.6324 52.4722 35.1446C51.0088 34.169 49.5454 33.0714 48.2039 31.9738C47.8381 31.608 47.3503 30.8763 47.4722 30.3885C47.5942 30.0226 48.4478 29.5348 48.9356 29.5348C50.643 29.4129 52.3503 29.4129 54.0576 29.5348C54.7893 29.5348 55.1552 29.2909 55.3991 28.5592C55.8869 26.8519 56.3747 25.2665 56.9844 23.6812C57.2283 23.1933 57.8381 22.5836 58.3259 22.4616C58.6917 22.4616 59.4234 23.0714 59.5454 23.6812C60.1552 25.3885 60.643 27.0958 61.2527 28.8031C61.3747 29.169 61.8625 29.5348 62.2283 29.5348C63.9356 29.6568 65.7649 29.5348 67.4722 29.5348C68.2039 29.5348 68.9356 29.6568 69.0576 30.3885C69.0576 30.8763 68.6917 31.608 68.2039 31.9738C66.8625 33.0714 65.521 34.047 64.0576 35.0226C63.4478 35.3885 63.3259 35.7543 63.5698 36.3641C64.0576 37.9494 64.5454 39.5348 65.0332 40.9982C65.2771 41.7299 65.521 42.4616 64.7893 43.0714C63.9356 43.6812 63.3259 43.0714 62.7161 42.7055C61.6186 41.8519 60.0332 40.7543 58.4478 39.5348ZM64.0576 32.3397C64.0576 32.2177 64.0576 32.2177 64.0576 32.0958C63.2039 32.0958 62.2283 32.0958 61.3747 32.0958C60.3991 32.0958 59.7893 31.7299 59.5454 30.7543C59.3015 29.9007 58.9356 28.9251 58.5698 27.8275C58.2039 28.9251 57.8381 29.7787 57.7161 30.6324C57.4722 31.7299 56.8625 32.2177 55.643 32.0958C54.7893 31.9738 53.9356 32.0958 52.7161 32.0958C53.8137 32.8275 54.5454 33.4373 55.2771 34.047C56.0088 34.5348 56.2527 35.1446 55.8869 35.9982C55.521 36.8519 55.3991 37.7055 55.0332 38.6812C56.0088 38.3153 56.7405 37.8275 57.3503 37.3397C58.082 36.7299 58.8137 36.7299 59.5454 37.3397C60.2771 37.8275 61.0088 38.3153 61.7405 38.9251C61.6186 37.9494 61.4966 36.9738 61.1308 36.1202C60.7649 35.2665 61.1308 34.6568 61.7405 34.169C62.4722 33.4372 63.3259 32.9494 64.0576 32.3397Z" fill="#E31E24"/>
<path d="M58.8129 49.047C59.1787 49.5348 59.7885 50.0226 59.6666 50.5104C59.6666 50.9982 58.9348 51.486 58.447 51.608C57.7153 51.7299 57.1056 51.1202 57.2275 50.3885C57.3495 49.9007 57.8373 49.4129 58.2031 48.925C58.447 49.047 58.569 49.047 58.8129 49.047Z" fill="#E31E24"/>
</g>
<defs>
<clipPath id="clip0_301_1349">
<rect width="57.1951" height="65" fill="white" transform="translate(29.7891 8.19336)"/>
</clipPath>
</defs>
</svg>
