<svg width="24" height="36" viewBox="0 0 24 36" fill="none" xmlns="http://www.w3.org/2000/svg">
<path d="M2.39551 30.8174C3.71802 30.8176 4.79004 31.8893 4.79004 33.2119C4.79004 34.5345 3.71802 35.6072 2.39551 35.6074C1.07277 35.6074 0 34.5346 0 33.2119C1.03081e-06 31.8892 1.07278 30.8174 2.39551 30.8174ZM12.8672 31.1865C13.9853 31.1868 14.8916 32.0937 14.8916 33.2119C14.8915 34.33 13.9853 35.2361 12.8672 35.2363C11.7489 35.2363 10.8419 34.3302 10.8418 33.2119C10.8418 32.0936 11.7489 31.1865 12.8672 31.1865ZM22.4336 31.7217C23.2564 31.7218 23.9229 32.3891 23.9229 33.2119C23.9228 34.0347 23.2563 34.702 22.4336 34.7021C21.6107 34.7021 20.9434 34.0348 20.9434 33.2119C20.9434 32.389 21.6107 31.7217 22.4336 31.7217ZM2.39551 20.5449C3.71798 20.5452 4.78997 21.6169 4.79004 22.9395C4.79004 24.262 3.71802 25.3347 2.39551 25.335C1.07277 25.335 0 24.2622 0 22.9395C6.59693e-05 21.6168 1.07282 20.5449 2.39551 20.5449ZM12.8672 20.915C13.9853 20.9153 14.8915 21.8213 14.8916 22.9395C14.8916 24.0576 13.9853 24.9646 12.8672 24.9648C11.7489 24.9648 10.8418 24.0578 10.8418 22.9395C10.8419 21.8212 11.7489 20.915 12.8672 20.915ZM22.4336 21.4502C23.2563 21.4503 23.9227 22.1167 23.9229 22.9395C23.9229 23.7623 23.2564 24.4296 22.4336 24.4297C21.6107 24.4297 20.9434 23.7624 20.9434 22.9395C20.9435 22.1167 21.6108 21.4502 22.4336 21.4502ZM2.39551 10.2725C3.71789 10.2727 4.78984 11.3446 4.79004 12.667C4.79004 13.9896 3.71802 15.0622 2.39551 15.0625C1.07277 15.0625 0 13.9897 0 12.667C0.000197893 11.3444 1.0729 10.2725 2.39551 10.2725ZM12.8672 10.6426C13.9852 10.6428 14.8915 11.5489 14.8916 12.667C14.8916 13.7852 13.9853 14.6921 12.8672 14.6924C11.7489 14.6924 10.8418 13.7853 10.8418 12.667C10.8419 11.5488 11.7489 10.6426 12.8672 10.6426ZM22.4336 11.1777C23.2563 11.1779 23.9227 11.8443 23.9229 12.667C23.9229 13.4898 23.2564 14.1571 22.4336 14.1572C21.6107 14.1572 20.9434 13.4899 20.9434 12.667C20.9435 11.8442 21.6108 11.1777 22.4336 11.1777ZM2.39551 0C3.71802 0.00026359 4.79004 1.07294 4.79004 2.39551C4.78978 3.71785 3.71785 4.78978 2.39551 4.79004C1.07294 4.79004 0.00026359 3.71802 0 2.39551C0 1.07277 1.07277 0 2.39551 0ZM12.8672 0.370117C13.9853 0.370377 14.8916 1.27734 14.8916 2.39551C14.8913 3.51345 13.9851 4.41966 12.8672 4.41992C11.749 4.41992 10.8421 3.51361 10.8418 2.39551C10.8418 1.27718 11.7489 0.370117 12.8672 0.370117ZM22.4336 0.905273C23.2563 0.905405 23.9227 1.57188 23.9229 2.39453C23.9229 3.21735 23.2564 3.88463 22.4336 3.88477C21.6107 3.88477 20.9434 3.21743 20.9434 2.39453C20.9436 1.5718 21.6108 0.905273 22.4336 0.905273Z" fill="#6F6F6F"/>
</svg>
