<svg width="93" height="79" viewBox="0 0 93 79" fill="none" xmlns="http://www.w3.org/2000/svg">
<g>
<path d="M40.2336 9.10205C41.1028 9.48838 41.1994 10.261 41.1028 11.1303C41.3925 11.1303 41.6823 11.1303 41.8755 11.1303C47.6704 11.1303 53.5619 11.1303 59.3569 11.1303C62.2544 11.1303 64.7655 11.9029 66.9869 13.738C68.9185 15.3799 70.9468 16.8286 72.975 18.374C73.2648 18.5671 73.6511 18.6637 73.9408 18.6637C78.1905 18.6637 82.4401 18.6637 86.6897 18.6637C89.8769 18.6637 92.1949 20.9817 92.1949 24.1689C92.1949 31.6058 92.1949 39.1392 92.1949 46.576C92.1949 49.7633 89.8769 52.0812 86.6897 52.0812C82.6333 52.0812 78.5768 52.0812 74.4237 52.0812C73.8442 52.0812 73.3613 51.8881 73.0716 51.3086C72.8784 50.8257 72.8784 50.3428 73.3613 49.9564C73.6511 49.7633 74.134 49.5701 74.5203 49.5701C78.5768 49.5701 82.6333 49.5701 86.6897 49.5701C88.4282 49.5701 89.6838 48.3145 89.5872 46.576C75.5827 46.576 61.6749 46.576 47.6704 46.576C47.3807 48.1214 48.7328 49.5701 50.5679 49.5701C53.4654 49.5701 56.3628 49.5701 59.2603 49.5701C60.4193 49.5701 61.6749 49.5701 62.8338 49.5701C63.7031 49.5701 64.186 50.053 64.186 50.8257C64.186 51.5983 63.6065 52.0812 62.8338 52.0812C58.6808 52.0812 54.4312 52.0812 50.2781 52.0812C47.4772 52.0812 45.1593 49.6667 45.0627 46.8658C45.0627 42.0367 45.0627 37.111 45.0627 32.2818C45.0627 31.7989 44.9661 31.6058 44.4832 31.4126C43.4208 30.9297 42.2618 30.3502 40.9096 30.7365C40.9096 30.9297 40.9096 31.2194 40.9096 31.4126C40.9096 32.2818 40.4267 32.7648 39.5575 32.7648C36.2737 32.7648 32.9899 32.7648 29.7061 32.7648C29.4163 32.7648 29.2232 32.7648 28.9334 32.7648C28.1607 32.8613 27.5813 32.5716 27.2915 31.8955C27.4847 24.3621 27.4847 16.7321 27.4847 9.10205C31.7343 9.10205 35.9839 9.10205 40.2336 9.10205ZM89.7804 38.4631C89.7804 38.3665 89.7804 38.27 89.7804 38.1734C89.7804 33.4408 89.7804 28.8049 89.7804 24.0723C89.7804 22.4304 88.5248 21.2714 86.8829 21.2714C77.3212 21.2714 67.663 21.2714 58.1013 21.2714C57.1355 21.2714 56.4594 21.7544 56.2662 22.527C56.0731 23.2997 56.4594 23.9757 57.3286 24.4587C58.9706 25.4245 60.709 26.2937 62.3509 27.2596C64.0894 28.2254 64.8621 30.157 64.2826 31.9921C63.7997 33.8272 62.0612 35.0827 60.1295 34.8896C57.6184 34.6964 55.1073 34.3101 52.5961 33.9237C50.9542 33.634 49.4089 33.1511 47.767 32.7648C47.767 34.6964 47.767 36.5315 47.767 38.4631C61.7714 38.4631 75.7759 38.4631 89.7804 38.4631ZM41.1994 28.2254C41.4891 28.2254 41.6823 28.2254 41.8755 28.2254C42.9379 28.1288 43.9037 28.322 44.9661 28.8049C46.0285 29.2878 47.1875 29.6741 48.2499 30.0604C52.0166 31.4126 55.8799 31.9921 59.8398 32.2818C60.9022 32.3784 61.5783 31.9921 61.7714 31.2194C62.0612 30.4468 61.6749 29.7707 60.8056 29.1912C59.1637 28.322 57.5218 27.4527 55.8799 26.4869C54.1414 25.5211 53.2722 23.686 53.6585 21.8509C54.1414 19.9193 55.7833 18.6637 57.9081 18.6637C61.3851 18.6637 64.9587 18.6637 68.4356 18.6637C68.6288 18.6637 68.822 18.6637 69.2083 18.6637C67.7596 17.5047 66.4074 16.5389 65.0552 15.4765C63.5099 14.2209 61.7714 13.6414 59.7432 13.6414C53.7551 13.6414 47.767 13.6414 41.7789 13.6414C41.5857 13.6414 41.296 13.6414 41.1028 13.6414C41.1994 18.5671 41.1994 23.3963 41.1994 28.2254ZM29.9958 30.3502C32.8933 30.3502 35.6942 30.3502 38.4951 30.3502C38.4951 24.0723 38.4951 17.8911 38.4951 11.7098C35.5976 11.7098 32.7967 11.7098 29.9958 11.7098C29.9958 17.8911 29.9958 24.0723 29.9958 30.3502ZM89.7804 41.0708C75.7759 41.0708 61.7714 41.0708 47.767 41.0708C47.767 42.0367 47.767 43.0025 47.767 44.0649C61.7714 44.0649 75.7759 44.0649 89.7804 44.0649C89.7804 43.0025 89.7804 42.0367 89.7804 41.0708Z" fill="#2E367B"/>
<path d="M59.84 73.9089C51.8236 73.9089 43.9039 73.9089 35.8875 73.9089C34.6319 73.9089 34.2456 73.5226 34.2456 72.267C34.2456 70.4319 34.2456 68.5968 34.2456 66.7618C34.2456 64.1541 36.3704 62.0292 38.9781 62.0292C52.886 62.0292 66.6973 62.0292 80.6052 62.0292C83.2129 62.0292 85.3377 64.1541 85.3377 66.7618C85.3377 68.5968 85.3377 70.4319 85.3377 72.3636C85.3377 73.5226 84.9514 73.9089 83.7924 73.9089C75.8726 73.9089 67.8563 73.9089 59.84 73.9089ZM36.8533 71.3977C52.2099 71.3977 67.5666 71.3977 82.9232 71.3977C82.9232 70.0456 82.9232 68.6934 82.9232 67.3413C82.9232 65.4096 82.0539 64.5404 80.1223 64.5404C66.6007 64.5404 53.0792 64.5404 39.5576 64.5404C39.3645 64.5404 39.1713 64.5404 38.9781 64.5404C37.8192 64.637 36.8533 65.4096 36.8533 66.6652C36.8533 68.2105 36.8533 69.7558 36.8533 71.3977Z" fill="#E31E24"/>
<path d="M67.4697 50.9223C67.4697 50.2462 68.0492 49.6667 68.7253 49.6667C69.4014 49.6667 69.9809 50.2462 69.9809 50.9223C69.9809 51.5983 69.498 52.1778 68.7253 52.1778C68.0492 52.1778 67.4697 51.5983 67.4697 50.9223Z" fill="#E31E24"/>
</g>
</svg>
