<svg width="93" height="79" viewBox="0 0 93 79" fill="none" xmlns="http://www.w3.org/2000/svg">
<circle cx="39.9849" cy="39.1934" r="39" fill="#EEEEEE"/>
<g clip-path="url(#clip0_301_1350)">
<path d="M47.5689 21.7046C53.8985 11.2364 68.5052 12.5754 73.7393 22.4349C74.5914 21.4611 75.5652 20.6091 75.4435 19.1484C75.2 18.0529 75.8086 16.714 74.3479 16.1053C74.1045 15.9836 74.1045 15.375 74.1045 15.0098C74.1045 13.7926 74.1045 12.4537 74.1045 11.2364C74.1045 9.41059 75.2 8.31508 77.1476 8.31508C79.7037 8.31508 82.1382 8.31508 84.6944 8.31508C86.5202 8.31508 87.6157 9.41059 87.6157 11.2364C87.6157 12.4537 87.6157 13.6709 87.6157 15.0098C87.6157 15.9836 87.3723 16.5922 86.2768 16.714C86.2768 17.8095 86.2768 18.905 86.2768 19.8788C86.2768 20.2439 86.5202 20.7308 86.7637 21.096C87.8592 22.6784 89.0764 24.2608 90.2936 25.7214C91.876 27.669 92.6064 29.86 92.4846 32.4162C92.4846 33.6334 92.4846 34.7289 92.4846 35.9462C92.4846 36.1896 92.6064 36.5548 92.3629 36.7982C91.2674 38.5023 91.6326 40.3282 91.5109 42.154C91.5109 43.0061 91.1457 43.493 90.2936 43.493C89.4416 43.493 89.0764 43.0061 89.0764 42.2758C89.0764 41.7889 89.0764 41.302 89.0764 40.8151C89.0764 40.3282 89.0764 39.8413 89.0764 39.3544C83.4772 39.3544 77.9996 39.3544 72.5221 39.3544C72.5221 45.3188 72.5221 51.1615 72.5221 57.2477C77.9996 57.2477 83.4772 57.2477 89.0764 57.2477C89.0764 56.1522 89.0764 55.0567 89.0764 53.9611C89.0764 53.1091 89.3199 52.3787 90.4154 52.3787C91.5109 52.3787 91.6326 53.1091 91.6326 53.9611C91.6326 54.8132 91.6326 55.6653 91.6326 56.3956C91.6326 57.3694 91.6326 58.3432 92.2412 59.1952C92.4846 59.5604 92.4846 60.169 92.4846 60.6559C92.4846 63.4555 92.4846 66.3769 92.4846 69.1765C92.4846 71.3675 90.5371 73.3151 88.3461 73.3151C87.2506 73.3151 86.2768 73.3151 85.1813 73.3151C84.0858 73.3151 83.112 73.0716 82.2599 72.2196C81.5296 71.4892 80.3124 71.4892 79.582 72.2196C78.8517 72.9499 77.8779 73.3151 76.7824 73.3151C75.8086 73.3151 74.9566 73.3151 73.9828 73.3151C71.0614 73.3151 69.3573 71.4892 69.3573 68.6896C69.3573 66.0117 69.3573 63.4555 69.3573 60.7776C69.3573 60.4125 69.2356 60.0473 69.479 59.8038C70.4528 58.2215 70.0876 56.3956 70.0876 54.6915C70.0876 50.5529 70.0876 46.4143 70.0876 42.2758C70.0876 41.9106 70.0876 41.5454 70.0876 41.0585C69.2356 41.5454 68.5052 42.0323 67.7749 42.5192C67.5315 42.7626 67.288 43.2495 67.288 43.6147C67.288 47.2664 67.288 50.7964 67.288 54.448C67.288 55.0567 66.9228 55.9087 66.5577 56.1522C66.1925 56.3956 65.3405 56.0304 64.8536 55.787C63.3929 54.5698 62.1757 53.596 60.9584 52.6222C59.6195 53.596 58.4022 54.6915 56.9416 55.6653C56.4547 55.9087 55.7243 56.1522 55.3592 56.0304C54.994 55.787 54.6288 55.0567 54.6288 54.5698C54.6288 51.1615 54.6288 47.6316 54.6288 44.2233C54.6288 43.3713 54.5071 42.8844 53.6551 42.6409C53.0464 42.3975 52.5596 42.0323 51.8292 41.6671C51.8292 44.1016 51.8292 46.4143 51.8292 48.6053C51.8292 50.9181 51.8292 53.2308 51.8292 55.4218C51.8292 56.7608 51.5858 58.0997 52.4378 59.317C52.4378 62.9686 52.5596 66.742 52.3161 70.3937C52.1944 71.9761 50.0034 73.1934 48.2993 73.1934C47.3255 73.1934 46.4734 73.1934 45.4996 73.1934C44.2824 73.3151 43.1869 72.9499 42.2131 72.0979C41.4828 71.3675 40.3873 71.4892 39.6569 72.0979C38.8049 72.9499 37.8311 73.3151 36.7356 73.1934C35.8835 73.1934 35.0315 73.1934 34.3011 73.1934C31.0146 73.1934 29.4322 71.611 29.4322 68.3244C29.4322 66.2552 29.4322 64.0641 29.4322 61.9949C29.4322 60.7776 29.3105 59.4387 30.0408 58.3432C30.1625 58.0997 30.1625 57.7346 30.1625 57.3694C30.1625 51.405 30.1625 45.4405 30.1625 39.4761C30.1625 38.8675 29.9191 38.3806 29.6757 37.772C29.5539 37.4068 29.3105 37.0417 29.3105 36.6765C29.067 32.4162 28.9453 28.1559 32.2318 24.7477C32.7187 24.2608 33.0839 23.5304 33.5708 23.0435C35.2749 21.3394 36.0052 19.3919 35.3966 16.8357C34.3011 16.5922 34.1794 15.6185 34.1794 14.5229C34.1794 13.4274 34.1794 12.3319 34.1794 11.2364C34.3011 9.28886 35.3966 8.19336 37.1008 8.19336C39.7787 8.19336 42.3348 8.19336 45.0127 8.19336C46.5951 8.19336 47.6906 9.28887 47.8124 10.8713C47.8124 12.3319 47.9341 13.6709 47.8124 15.1316C47.8124 15.6185 47.4472 16.2271 47.2037 16.3488C46.3517 16.5922 46.4734 17.2008 46.4734 17.8095C46.4734 19.1484 46.1082 20.6091 47.5689 21.7046ZM32.8405 39.111C32.8405 45.1971 32.8405 51.1615 32.8405 57.1259C38.4397 57.1259 43.7955 57.1259 49.273 57.1259C49.273 51.1615 49.273 45.1971 49.273 39.111C48.6644 39.111 48.1775 39.111 47.5689 39.111C42.7 39.111 37.8311 39.111 32.8405 39.111ZM78.1213 16.5922C77.9996 16.8357 77.9996 16.8357 77.9996 16.9574C77.9996 17.0791 77.9996 17.2008 77.9996 17.4443C78.4865 20.2439 77.391 22.5567 75.4435 24.5042C75.4435 24.5042 75.4434 24.5042 75.3217 24.6259C75.2 25.1128 74.9566 25.7214 74.9566 26.2083C75.4434 28.7645 75.4434 31.199 74.5914 33.6334C74.2262 34.6072 73.861 35.581 73.4959 36.6765C78.73 36.6765 83.8423 36.6765 88.9547 36.6765C89.8067 36.6765 90.0502 36.3113 89.9285 35.581C89.9285 34.6072 89.9285 33.7552 89.9285 32.7814C89.9285 30.7121 89.4416 28.8862 88.1026 27.3038C86.8854 25.7214 85.5464 24.1391 84.4509 22.4349C83.964 21.7046 83.7206 20.8525 83.5989 20.0005C83.4772 19.0267 83.5989 17.9312 83.5989 16.8357C81.6513 16.5922 79.9472 16.5922 78.1213 16.5922ZM38.1963 16.5922C38.1963 17.566 38.0745 18.4181 38.1963 19.2701C38.318 20.6091 37.8311 21.7046 37.1008 22.6784C35.8835 24.1391 34.788 25.8432 33.5708 27.3038C32.4753 28.7645 31.9884 30.4686 31.9884 32.1728C31.9884 33.1465 31.9884 33.9986 31.9884 34.9724C31.9884 36.4331 31.9884 36.4331 33.4491 36.4331C37.8311 36.4331 42.2131 36.4331 46.5951 36.4331C46.9603 36.4331 47.2037 36.4331 47.5689 36.3113C47.4472 35.9462 47.3255 35.7027 47.2037 35.4593C45.6214 32.1728 45.2562 28.8862 46.1082 25.3563C46.3517 24.3825 46.23 23.6522 45.4996 23.0435C44.1607 21.7046 43.6738 20.0005 43.7955 18.1746C43.9172 17.566 43.7955 16.9574 43.7955 16.3488C41.8479 16.5922 40.1438 16.5922 38.1963 16.5922ZM80.921 59.6821C78.2431 59.6821 75.5652 59.6821 72.8873 59.6821C72.1569 59.6821 71.67 59.9256 71.67 60.7776C71.67 63.4555 71.67 66.1334 71.67 68.9331C71.67 69.9068 72.5221 70.7589 73.4959 70.7589C74.2262 70.7589 74.9566 70.7589 75.6869 70.7589C76.539 70.8806 77.2693 70.6372 77.9996 69.9068C79.2169 68.8113 82.0165 68.6896 83.2337 69.7851C84.0858 70.5155 84.8161 70.7589 85.9116 70.6372C86.5202 70.6372 87.1288 70.6372 87.7375 70.6372C88.9547 70.6372 89.8067 69.7851 89.8067 68.5679C89.8067 66.0117 89.8067 63.4555 89.8067 60.8993C89.8067 59.9256 89.4416 59.5604 88.4678 59.5604C86.0333 59.6821 83.4772 59.6821 80.921 59.6821ZM41.1176 59.6821C38.4397 59.6821 35.7618 59.6821 33.0839 59.6821C32.2318 59.6821 31.9884 59.9256 31.9884 60.7776C31.9884 63.4555 31.9884 66.0117 31.9884 68.6896C31.9884 69.9068 32.8405 70.7589 33.936 70.7589C34.6663 70.7589 35.3966 70.7589 36.127 70.7589C36.979 70.7589 37.7094 70.6372 38.318 70.0286C39.5352 68.9331 42.3348 68.8113 43.5521 69.9068C44.4041 70.7589 45.2562 70.8806 46.3517 70.7589C46.9603 70.7589 47.5689 70.7589 48.1775 70.7589C49.3948 70.7589 50.1251 70.0286 50.1251 68.8113C50.1251 66.1334 50.1251 63.5773 50.1251 60.8993C50.1251 59.9256 49.7599 59.6821 48.7861 59.6821C46.3517 59.6821 43.6738 59.6821 41.1176 59.6821ZM60.4715 41.5454C67.1663 41.5454 72.7655 35.9462 72.7655 29.2514C72.7655 22.4349 67.1663 16.8357 60.3498 16.8357C53.5333 16.8357 48.0558 22.4349 48.0558 29.1297C48.1775 35.9462 53.7768 41.5454 60.4715 41.5454ZM64.6101 43.8582C62.0539 43.8582 59.7412 43.8582 57.185 43.8582C57.185 46.6578 57.185 49.3357 57.185 52.1353C58.1588 51.405 59.0109 50.7964 59.7412 50.1877C60.4715 49.5791 61.0802 49.5791 61.8105 50.1877C62.6625 50.7964 63.5146 51.5267 64.4884 52.257C64.6101 49.214 64.6101 46.4143 64.6101 43.8582ZM45.1345 10.7495C42.3348 10.7495 39.6569 10.7495 36.8573 10.7495C36.8573 11.845 36.8573 12.9406 36.8573 14.0361C39.6569 14.0361 42.3348 14.0361 45.1345 14.0361C45.1345 12.8188 45.1345 11.845 45.1345 10.7495ZM76.6607 14.0361C79.4603 14.0361 82.1382 14.0361 84.9378 14.0361C84.9378 12.9406 84.9378 11.845 84.9378 10.7495C82.1382 10.7495 79.4603 10.7495 76.6607 10.7495C76.6607 11.845 76.6607 12.9406 76.6607 14.0361Z" fill="#2E367B"/>
<path d="M91.6327 47.6316C91.6327 48.4836 91.1458 48.9705 90.4154 48.8488C89.9285 48.7271 89.3199 48.1185 89.1982 47.7533C89.0765 47.023 89.5634 46.5361 90.4154 46.5361C91.1458 46.5361 91.5109 46.9012 91.6327 47.6316Z" fill="#E31E24"/>
<path d="M32.8403 39.111C37.831 39.111 42.6999 39.111 47.6905 39.111C48.1774 39.111 48.786 39.111 49.3946 39.111C49.3946 45.0754 49.3946 51.0398 49.3946 57.1259C43.9171 57.1259 38.4396 57.1259 32.9621 57.1259C32.8403 51.1615 32.8403 45.1971 32.8403 39.111Z" fill="white"/>
<path d="M78.1214 16.5922C79.9473 16.5922 81.7731 16.5922 83.7207 16.5922C83.7207 17.6877 83.5989 18.7832 83.7207 19.757C83.8424 20.6091 84.0858 21.4611 84.5727 22.1915C85.6682 23.8956 87.0072 25.478 88.2244 27.0604C89.5634 28.6428 90.0503 30.5904 90.0503 32.5379C90.0503 33.5117 90.0503 34.3638 90.0503 35.3375C90.0503 36.0679 89.8068 36.433 89.0765 36.433C83.9641 36.433 78.8518 36.433 73.6177 36.433C73.9828 35.3375 74.4697 34.3638 74.7132 33.39C75.5652 30.9555 75.5652 28.5211 75.0783 25.9649C74.9566 25.478 75.3218 24.9911 75.4435 24.3825C75.4435 24.3825 75.4435 24.2608 75.5652 24.2608C77.5128 22.3132 78.4866 20.0005 78.1214 17.2008C78.1214 17.0791 78.1214 16.9574 78.1214 16.7139C77.9997 16.8357 77.9997 16.8357 78.1214 16.5922Z" fill="white"/>
<path d="M38.1965 16.5922C40.1441 16.5922 41.9699 16.5922 43.9175 16.5922C43.9175 17.2008 43.9175 17.8095 43.9175 18.4181C43.674 20.3656 44.1609 21.948 45.6216 23.287C46.2302 23.8956 46.4736 24.6259 46.2302 25.5997C45.3781 29.008 45.7433 32.4162 47.3257 35.7027C47.4474 35.9462 47.5692 36.1896 47.6909 36.5548C47.3257 36.5548 46.9605 36.6765 46.7171 36.6765C42.3351 36.6765 37.953 36.6765 33.571 36.6765C32.1104 36.6765 32.1104 36.6765 32.1104 35.2158C32.1104 34.242 32.1104 33.39 32.1104 32.4162C32.1104 30.5904 32.5972 29.008 33.6927 27.5473C34.91 25.9649 36.0055 24.3825 37.2227 22.9218C38.0748 21.948 38.4399 20.8525 38.3182 19.5136C38.0748 18.5398 38.1965 17.566 38.1965 16.5922Z" fill="white"/>
<path d="M80.9211 59.6821C83.4772 59.6821 86.1551 59.6821 88.7113 59.6821C89.6851 59.6821 90.0503 60.0473 90.0503 61.0211C90.0503 63.5773 90.0503 66.1334 90.0503 68.6896C90.0503 69.9068 89.1982 70.7589 87.981 70.7589C87.3724 70.7589 86.7638 70.7589 86.1551 70.7589C85.1814 70.8806 84.3293 70.6372 83.4772 69.9068C82.26 68.8113 79.4604 68.8113 78.2432 70.0286C77.5128 70.6372 76.7825 70.8806 75.9304 70.8806C75.2001 70.8806 74.4698 70.8806 73.7394 70.8806C72.7656 70.8806 71.9136 70.0286 71.9136 69.0548C71.9136 66.3769 71.9136 63.699 71.9136 60.8994C71.9136 60.0473 72.2787 59.8039 73.1308 59.8039C75.5653 59.6821 78.2432 59.6821 80.9211 59.6821Z" fill="white"/>
<path d="M41.1178 59.6821C43.674 59.6821 46.3519 59.6821 48.9081 59.6821C49.7602 59.6821 50.2471 59.9256 50.2471 60.8994C50.2471 63.5773 50.2471 66.1334 50.2471 68.8113C50.2471 70.0286 49.395 70.7589 48.2995 70.7589C47.6909 70.7589 47.0823 70.7589 46.4736 70.7589C45.4999 70.7589 44.5261 70.6372 43.674 69.9068C42.4568 68.8113 39.6572 68.8113 38.4399 70.0286C37.8313 70.6372 37.101 70.8806 36.2489 70.7589C35.5186 70.7589 34.7883 70.7589 34.0579 70.7589C32.8407 70.7589 32.1104 69.9068 32.1104 68.6896C32.1104 66.0117 32.1104 63.4555 32.1104 60.7776C32.1104 59.9256 32.3538 59.6821 33.2059 59.6821C35.762 59.6821 38.4399 59.6821 41.1178 59.6821Z" fill="white"/>
<path d="M60.4717 41.5454C53.6553 41.5454 48.1777 35.9462 48.1777 29.1297C48.1777 22.4349 53.6553 16.8357 60.4717 16.8357C67.2882 16.8357 72.8875 22.4349 72.8875 29.2514C72.7657 35.9462 67.1665 41.5454 60.4717 41.5454ZM60.4717 19.6353C55.1159 19.6353 50.9774 23.7739 50.9774 29.1297C50.9774 34.4855 55.2377 38.7458 60.4717 38.7458C65.7058 38.7458 70.2096 34.3638 70.0878 29.1297C69.9661 23.287 65.0972 19.3919 60.4717 19.6353Z" fill="white"/>
<path d="M64.61 43.8582C64.61 46.5361 64.61 49.214 64.61 52.257C63.6362 51.5267 62.7842 50.9181 61.9321 50.1877C61.2018 49.5791 60.5932 49.5791 59.8628 50.1877C59.0108 50.7964 58.2804 51.405 57.3066 52.1353C57.3066 49.214 57.3066 46.5361 57.3066 43.8582C59.7411 43.8582 62.1756 43.8582 64.61 43.8582Z" fill="white"/>
<path d="M45.1346 10.7495C45.1346 11.845 45.1346 12.8188 45.1346 14.0361C42.4567 14.0361 39.657 14.0361 36.8574 14.0361C36.8574 12.9406 36.8574 11.9668 36.8574 10.7495C39.657 10.7495 42.3349 10.7495 45.1346 10.7495Z" fill="white"/>
<path d="M76.6606 14.0361C76.6606 12.9406 76.6606 11.845 76.6606 10.7495C79.4603 10.7495 82.1382 10.7495 84.9378 10.7495C84.9378 11.845 84.9378 12.8188 84.9378 14.0361C82.2599 14.0361 79.582 14.0361 76.6606 14.0361Z" fill="white"/>
<path d="M60.4714 19.6353C65.0969 19.3919 69.9658 23.287 70.0875 29.1297C70.2093 34.3638 65.7055 38.8675 60.4714 38.7458C55.2374 38.7458 50.9771 34.4855 50.9771 29.1297C50.9771 23.8956 55.1156 19.6353 60.4714 19.6353ZM67.5314 29.2514C67.5314 25.3563 64.4883 22.1915 60.5932 22.1915C56.5763 22.1915 53.5332 25.2346 53.5332 29.2514C53.5332 33.1465 56.5763 36.1896 60.4714 36.1896C64.3666 36.1896 67.5314 33.1465 67.5314 29.2514Z" fill="#E31E24"/>
<path d="M67.5313 29.2514C67.5313 33.2683 64.4883 36.3113 60.4714 36.3113C56.5763 36.3113 53.5332 33.2683 53.5332 29.3731C53.5332 25.3563 56.5763 22.3132 60.5931 22.3132C64.4883 22.1915 67.5313 25.2346 67.5313 29.2514ZM59.1325 30.2252C58.6456 29.6166 58.2804 29.1297 57.7935 28.7645C57.1849 28.2776 56.5763 28.1559 55.9677 28.7645C55.359 29.3731 55.4808 30.1035 56.0894 30.5904C56.698 31.199 57.3066 31.9293 58.0369 32.5379C59.0107 33.39 59.4976 33.5117 60.3497 32.5379C61.6886 31.199 63.0276 29.86 64.3665 28.5211C65.2186 27.669 65.2186 26.9387 64.61 26.3301C63.8796 25.5997 63.1493 25.9649 62.5407 26.6952C61.5669 27.7907 60.3497 28.8863 59.1325 30.2252Z" fill="white"/>
<path d="M59.1327 30.2252C60.3499 28.8862 61.4455 27.7907 62.541 26.6952C63.1496 26.0866 63.7582 25.7214 64.6102 26.33C65.2189 26.9387 65.0971 27.669 64.3668 28.5211C63.0278 29.86 61.6889 31.199 60.3499 32.5379C59.3762 33.5117 58.8893 33.5117 58.0372 32.5379C57.4286 31.9293 56.82 31.3207 56.0896 30.5903C55.481 29.9817 55.481 29.3731 55.9679 28.7645C56.5765 28.1559 57.1852 28.2776 57.7938 28.7645C58.2807 29.1297 58.6458 29.6166 59.1327 30.2252Z" fill="#E31E24"/>
</g>
<defs>
<clipPath id="clip0_301_1350">
<rect width="63.1742" height="65" fill="white" transform="translate(29.3105 8.19336)"/>
</clipPath>
</defs>
</svg>
