<svg width="93" height="79" viewBox="0 0 93 79" fill="none" xmlns="http://www.w3.org/2000/svg">
<g>
<path d="M62.9029 8.19336C63.9907 8.46533 65.0786 8.64664 66.0758 9.09991C69.6114 10.4597 71.9684 12.9981 73.3282 16.443C73.5096 16.8963 73.7815 17.1683 74.2348 17.2589C79.9461 18.9814 85.5667 20.7038 91.278 22.5169C91.3687 22.5169 91.4593 22.6076 91.55 22.6076C92.7285 22.9702 93.0005 24.0581 92.0939 24.9646C90.7341 26.3245 89.3743 27.6843 88.1051 29.0441C87.0172 30.132 85.9294 31.2199 84.8415 32.3077C85.0228 32.489 85.2041 32.6703 85.3854 32.8517C87.6518 35.118 89.8275 37.2938 92.0939 39.5602C93.1818 40.648 92.9098 41.6452 91.4593 42.0985C89.2836 42.8238 87.1079 43.4584 84.8415 44.1836C84.3882 44.2743 84.2976 44.4556 84.2976 44.9088C84.2976 51.2547 84.2976 57.6006 84.2976 63.9465C84.2976 65.0344 84.1162 65.397 83.0284 65.7596C75.6853 68.2073 68.3422 70.655 60.9991 73.1027C60.4552 73.284 59.9112 73.284 59.3673 73.1027C52.9307 70.655 46.4036 68.2073 39.967 65.8503C38.8791 65.397 38.6978 65.2157 38.6978 63.9465C38.6978 57.7819 38.6978 51.708 38.6978 45.5434C38.6978 45.0902 38.6072 44.8182 38.0632 44.7275C36.0688 44.0929 33.9837 43.3677 31.9893 42.7331C30.7201 42.2798 30.4482 41.5546 31.1734 40.3761C32.7146 37.8377 34.2557 35.2994 35.7969 32.6703C35.3436 32.3077 34.8903 31.8545 34.5277 31.4918C32.5333 29.4974 30.5388 27.503 28.5444 25.5086C28.2724 25.2366 28.0005 24.874 27.7285 24.5114C27.7285 24.2394 27.7285 23.9674 27.7285 23.7861C28.0005 23.2422 28.5444 22.9702 29.0883 22.7889C35.7969 20.7038 42.5054 18.6187 49.1232 16.5337C49.3952 16.443 49.7578 16.171 49.8485 15.8991C51.3896 12.6355 53.8373 10.3691 57.1916 9.19057C58.0981 8.82795 59.0047 8.73729 60.0019 8.46533C61.0897 8.19336 61.9963 8.19336 62.9029 8.19336ZM61.543 43.549C61.543 52.4333 61.543 61.2268 61.543 70.0204C61.7243 69.9298 61.9963 69.9298 62.1776 69.8391C68.5235 67.754 74.8694 65.5783 81.2153 63.4932C81.6685 63.3119 81.8499 63.1306 81.8499 62.6773C81.8499 57.0567 81.8499 51.3454 81.8499 45.7247C81.8499 45.5434 81.8499 45.3621 81.8499 45.0902C81.5779 45.1808 81.3059 45.2715 81.034 45.3621C76.5918 46.722 72.2404 48.0818 67.7983 49.5323C66.7104 49.8949 66.4384 49.7136 65.7132 48.8977C64.3533 47.0846 62.9935 45.3621 61.543 43.549ZM59.0047 44.7275H58.914C58.0075 46.178 57.1916 47.6285 56.285 49.079C55.6504 50.1669 55.2878 50.3482 54.0186 49.8949C51.1176 48.8977 48.126 47.9005 45.225 46.9939C43.9559 46.5406 42.596 46.0874 41.2362 45.7247C41.2362 51.708 41.2362 57.51 41.2362 63.4932C47.1288 65.669 53.0214 67.9353 58.914 70.1111C59.0047 61.4988 59.0047 53.1585 59.0047 44.7275ZM71.6964 20.9758C71.7871 15.4458 67.2543 10.7317 61.6337 10.7317C56.013 10.7317 51.4803 15.0832 51.3896 20.7038C51.3896 26.4151 55.7411 30.8572 61.543 31.0386C66.9824 31.1292 71.6058 26.5058 71.6964 20.9758ZM62.4496 40.5574C62.5402 40.7387 62.6309 40.8293 62.7215 40.92C64.172 42.7331 65.6225 44.5462 67.073 46.3593C67.345 46.722 67.6169 46.8126 68.0702 46.6313C73.5096 44.9088 79.0395 43.1864 84.4789 41.4639C85.9294 41.0107 87.4705 40.5574 89.0116 40.0134C88.8303 39.8321 88.649 39.6508 88.5584 39.4695C86.7453 37.6564 85.0228 35.9339 83.2097 34.1208C82.8471 33.7582 82.5751 33.6676 82.1218 33.8489C76.5012 35.7526 70.8805 37.6564 65.2599 39.4695C64.3533 39.9228 63.4468 40.1948 62.4496 40.5574ZM54.3812 47.2659C55.7411 44.9995 57.0102 42.8238 58.3701 40.5574C51.4803 38.291 44.7718 36.0246 38.0632 33.7582C36.7034 36.0246 35.4342 38.2003 34.0744 40.3761C40.8736 42.7331 47.5821 44.9995 54.3812 47.2659ZM41.7801 32.2171C41.7801 32.3077 41.7801 32.3077 41.7801 32.3984C41.8708 32.489 42.0521 32.489 42.1427 32.5797C48.0354 34.5741 54.0186 36.5685 59.9112 38.4723C60.1832 38.563 60.5458 38.563 60.9084 38.3816C66.7104 36.4779 72.5123 34.4835 78.3143 32.5797C78.4956 32.489 78.6769 32.489 79.0395 32.3077C76.4105 31.4012 74.0535 30.6759 71.6964 29.86C71.0619 29.6787 70.6992 29.7694 70.246 30.132C68.0702 32.2171 65.5319 33.3049 62.5402 33.5769C58.3701 33.8489 54.9252 32.3984 52.1148 29.3161C51.8429 29.0441 51.5709 28.9535 51.2083 29.1348C49.5765 29.6787 47.854 30.2227 46.2222 30.7666C44.6811 31.2199 43.2306 31.6731 41.7801 32.2171ZM48.9419 19.072C43.14 20.8851 37.338 22.6982 31.536 24.5114C31.536 24.602 31.536 24.6927 31.6267 24.6927C33.6211 26.6871 35.5249 28.6815 37.5193 30.5853C37.61 30.6759 37.9726 30.7666 38.1539 30.6759C40.0577 30.0413 41.8708 29.4068 43.7745 28.7722C45.8596 28.0469 48.0354 27.3217 50.1204 26.6871C49.0326 24.2394 48.6699 21.7917 48.9419 19.072ZM72.4217 27.3217C72.603 27.4123 72.6936 27.4123 72.7843 27.503C75.9572 28.5909 79.1302 29.5881 82.2125 30.6759C82.5751 30.7666 82.7564 30.6759 83.0284 30.4946C84.8415 28.6815 86.7453 26.7777 88.5584 24.9646C88.649 24.874 88.7397 24.6927 88.921 24.5114C83.9349 22.9702 79.1302 21.5197 74.1441 19.9786C74.3254 22.6076 73.7815 25.0553 72.4217 27.3217Z" fill="#2E367B"/>
<path d="M55.1064 65.7596C54.9251 65.7596 54.6531 65.6689 54.4718 65.5783C52.2054 64.7624 49.939 63.8558 47.6726 63.0399C47.582 63.0399 47.582 62.9493 47.4913 62.9493C46.5847 62.5867 46.2221 61.9521 46.4941 61.2268C46.7661 60.5016 47.4913 60.2296 48.3979 60.5922C50.7549 61.4988 53.1119 62.3147 55.3783 63.2212C55.5596 63.3119 55.8316 63.4026 56.0129 63.4932C56.4662 63.8558 56.6475 64.3091 56.4662 64.9437C56.1942 65.4876 55.741 65.7596 55.1064 65.7596Z" fill="#E31E24"/>
<path d="M51.1177 58.0539C51.1177 57.238 51.8429 56.6034 52.6588 56.8754C53.656 57.238 54.6532 57.6006 55.6505 57.9633C56.285 58.2352 56.557 58.9605 56.3757 59.5044C56.1037 60.139 55.4691 60.5016 54.8346 60.2296C53.8373 59.867 52.8401 59.5044 51.8429 59.1418C51.3896 58.9605 51.1177 58.5978 51.1177 58.0539Z" fill="#E31E24"/>
<path d="M48.851 56.4221C48.851 57.1473 48.2164 57.6913 47.5818 57.6913C46.9473 57.6913 46.4033 57.0567 46.4033 56.4221C46.4033 55.7875 46.9473 55.1529 47.6725 55.1529C48.3071 55.0623 48.851 55.6969 48.851 56.4221Z" fill="#E31E24"/>
<path d="M60.2739 22.8796C62.4497 20.7038 64.5347 18.6188 66.6198 16.5337C66.8011 16.3524 66.9824 16.1711 67.2544 15.9897C67.7983 15.6271 68.4329 15.7178 68.7955 16.1711C69.1582 16.6243 69.2488 17.1683 68.9769 17.7122C68.8862 17.8935 68.7049 18.0748 68.5236 18.2561C66.1665 20.6132 63.9002 22.8796 61.5431 25.2366C60.6366 26.1432 60.002 26.1432 59.0954 25.2366C58.3702 24.5114 57.6449 23.7861 56.9197 23.0609C56.1944 22.3356 56.3757 21.3384 57.2823 20.8851C57.8262 20.6132 58.3702 20.8851 58.7328 21.2478C59.2767 21.8824 59.73 22.3356 60.2739 22.8796Z" fill="#E31E24"/>
</g>
</svg>
