<svg width="61" height="61" viewBox="0 0 61 61" fill="none" xmlns="http://www.w3.org/2000/svg">
<g clip-path="url(#clip0_56_1223)">
<path d="M0.819336 18.8494C0.819336 12.8181 0.819336 6.77124 0.819336 0.724365C20.8193 0.724365 40.8193 0.724365 60.8193 0.724365C60.8193 20.7087 60.8193 40.7087 60.8193 60.7244C40.8193 60.7244 20.8193 60.7244 0.819336 60.7244C0.819336 54.5369 0.819336 48.3337 0.819336 42.1462C1.20996 42.4431 1.55371 42.8181 1.99121 43.0369C8.92871 46.6931 15.8818 50.3181 22.8193 53.9744C23.3975 54.2712 23.9131 54.3494 24.5381 54.1462C28.5381 52.8806 32.5537 51.6619 36.5693 50.4119C36.96 50.2869 37.3506 50.1619 37.71 49.9744C38.2412 49.7087 38.3662 49.1931 38.2256 48.6775C38.085 48.1619 37.71 47.8494 37.1475 47.865C36.835 47.8806 36.5381 47.9431 36.2412 48.0369C32.2881 49.2556 28.335 50.49 24.3818 51.6931C24.1162 51.7712 23.7568 51.7556 23.5225 51.6306C17.5381 48.5369 11.5693 45.4119 5.61621 42.2712C5.47559 42.1931 5.35059 42.0994 5.13184 41.9744C8.44434 40.9431 11.6631 39.9587 14.8818 38.99C15.1631 38.9119 15.5381 38.9431 15.8037 39.0837C18.1787 40.3025 20.5381 41.5369 22.8975 42.7869C23.4287 43.0681 23.9443 43.115 24.5225 42.9431C31.5068 40.7712 38.4756 38.615 45.46 36.4431C45.8193 36.3337 46.1006 36.3494 46.4443 36.5212C49.585 38.1931 52.7412 39.8337 55.8975 41.49C56.0381 41.5681 56.1787 41.6619 56.3975 41.8025C56.1318 41.8962 55.96 41.9744 55.7725 42.0212C52.6006 43.0056 49.4287 43.9744 46.2412 44.9587C46.0225 45.0212 45.7881 45.0994 45.585 45.2087C45.0537 45.4744 44.8193 46.0212 44.96 46.5837C45.1006 47.115 45.6162 47.4587 46.2256 47.3962C46.46 47.3806 46.6787 47.3025 46.8975 47.24C49.5225 46.4275 52.1318 45.6306 54.7568 44.8181C56.4131 44.3025 58.0693 43.8025 59.71 43.2869C60.6318 43.0056 61.0225 42.1775 60.5537 41.49C60.3818 41.24 60.0693 41.0369 59.7881 40.8806C56.4756 39.1306 53.1475 37.3806 49.8193 35.6462C49.6475 35.5525 49.4756 35.4431 49.2256 35.3025C50.2412 34.99 51.1475 34.7087 52.0537 34.4275C54.585 33.6462 57.1006 32.865 59.6318 32.0837C60.4287 31.8337 60.7725 31.4275 60.7412 30.7869C60.6943 30.2087 60.3037 29.9119 59.835 29.6619C56.5225 27.9275 53.21 26.1931 49.8975 24.4587C49.6943 24.3494 49.5068 24.2244 49.2412 24.0681C49.5068 23.9744 49.6943 23.9275 49.8662 23.865C53.1162 22.8494 56.3662 21.8494 59.6162 20.8494C60.1943 20.6775 60.6631 20.3962 60.7256 19.74C60.7881 19.0681 60.3818 18.7244 59.835 18.4431C52.7412 14.74 45.6787 11.0369 38.6162 7.31812C38.1006 7.05249 37.6162 7.00562 37.0537 7.17749C25.4131 10.7869 13.7725 14.3806 2.13184 17.9744C1.58496 18.1462 1.13184 18.3806 0.819336 18.8494ZM40.4131 47.5994C40.3818 48.2087 40.8975 48.7712 41.5225 48.8025C42.1631 48.8494 42.7256 48.3181 42.7568 47.6775C42.7881 47.0681 42.2725 46.5056 41.6631 46.4744C41.0068 46.4431 40.4443 46.9587 40.4131 47.5994Z" fill="none"/>
<path d="M0.819336 18.8494C1.13184 18.3806 1.58496 18.1306 2.13184 17.9744C13.7725 14.3806 25.4131 10.7869 37.0537 7.17752C37.6162 7.00564 38.1006 7.05252 38.6162 7.31814C45.6787 11.0369 52.7412 14.74 59.8193 18.4275C60.3506 18.7088 60.7725 19.0681 60.71 19.7244C60.6475 20.3806 60.1787 20.6619 59.6006 20.8338C56.3506 21.8338 53.1006 22.8494 49.8506 23.8494C49.6787 23.9119 49.4912 23.9588 49.2256 24.0525C49.4912 24.2088 49.6787 24.3338 49.8818 24.4431C53.1943 26.1775 56.5068 27.9119 59.8193 29.6463C60.2881 29.8963 60.6787 30.1775 60.7256 30.7713C60.7725 31.4119 60.4131 31.8181 59.6162 32.0681C57.085 32.8494 54.5693 33.6306 52.0381 34.4119C51.1318 34.6931 50.2256 34.9744 49.21 35.2869C49.46 35.4275 49.6318 35.5369 49.8037 35.6306C53.1318 37.3806 56.46 39.115 59.7725 40.865C60.0537 41.0213 60.3662 41.2088 60.5381 41.4744C61.0068 42.1619 60.6162 42.9744 59.6943 43.2713C58.0381 43.7869 56.3975 44.3025 54.7412 44.8025C52.1162 45.615 49.5068 46.4119 46.8818 47.2244C46.6631 47.2869 46.4287 47.365 46.21 47.3806C45.6162 47.4431 45.085 47.0838 44.9443 46.5681C44.8037 46.0056 45.0381 45.4588 45.5693 45.1931C45.7725 45.0838 46.0068 45.0213 46.2256 44.9431C49.3975 43.9588 52.5693 42.9744 55.7568 42.0056C55.9287 41.9431 56.1162 41.8806 56.3818 41.7869C56.1631 41.6463 56.0225 41.5525 55.8818 41.4744C52.7256 39.8181 49.5693 38.1775 46.4287 36.5056C46.085 36.3181 45.8037 36.3181 45.4443 36.4275C38.46 38.5994 31.4912 40.7556 24.5068 42.9275C23.9287 43.115 23.4287 43.0681 22.8818 42.7713C20.5225 41.5213 18.1631 40.2869 15.7881 39.0681C15.5225 38.9431 15.1475 38.8963 14.8662 38.9744C11.6475 39.9431 8.44434 40.9431 5.11621 41.9588C5.31934 42.0838 5.45996 42.1775 5.60059 42.2556C11.5693 45.3806 17.5225 48.5213 23.4912 51.6306C23.7256 51.7556 24.1006 51.7713 24.3506 51.6931C28.3037 50.49 32.2568 49.2556 36.21 48.0369C36.5068 47.9431 36.8193 47.8806 37.1162 47.865C37.6787 47.8494 38.0537 48.1619 38.1943 48.6775C38.335 49.2088 38.21 49.7088 37.6787 49.9744C37.3193 50.1619 36.9287 50.2869 36.5381 50.4119C32.5225 51.6619 28.5068 52.8806 24.5068 54.1463C23.8818 54.3494 23.3506 54.2713 22.7881 53.9744C15.8506 50.3181 8.89746 46.6931 1.95996 43.0369C1.53809 42.8181 1.17871 42.4431 0.788086 42.1463C0.788086 41.8806 0.788086 41.5994 0.788086 41.3338C1.08496 40.8494 1.53809 40.5994 2.08496 40.4431C3.53809 40.0213 4.99121 39.5681 6.42871 39.115C8.35059 38.5213 10.2725 37.9275 12.3037 37.2869C12.0068 37.115 11.8193 37.0056 11.6162 36.8963C8.42871 35.1931 5.19434 33.5213 1.99121 31.8181C1.56934 31.5838 1.20996 31.2244 0.819336 30.9119C0.819336 30.6463 0.819336 30.365 0.819336 30.0994C1.13184 29.615 1.58496 29.3806 2.11621 29.2088C3.78809 28.7088 5.45996 28.1619 7.11621 27.6463C8.88184 27.0838 10.6475 26.5369 12.46 25.9588C12.3662 25.8806 12.3193 25.8338 12.2725 25.8025C8.83496 24.0681 5.39746 22.3338 1.97559 20.5838C1.53809 20.365 1.19434 19.99 0.803711 19.6775C0.819336 19.3963 0.819336 19.1306 0.819336 18.8494ZM56.4131 19.365C56.1318 19.2088 55.9756 19.0994 55.8037 19.0056C49.9131 15.9119 44.0225 12.8338 38.1318 9.72439C37.7725 9.53689 37.46 9.52127 37.085 9.63064C26.6631 12.865 16.2256 16.0994 5.78809 19.3181C5.60059 19.3806 5.41309 19.4588 5.19434 19.5213C5.25684 19.5994 5.27246 19.6463 5.30371 19.6619C7.60059 20.8338 9.91309 22.0213 12.21 23.1931C12.3818 23.2713 12.585 23.3025 12.7725 23.3025C13.9756 23.3025 15.1943 23.3338 16.3975 23.2869C18.1162 23.2244 19.7256 22.7713 21.2568 21.9588C22.6162 21.2244 23.7412 20.2244 24.7412 19.0681C25.2256 18.5056 25.7412 18.365 26.2256 18.6619C26.5068 18.8338 26.7412 19.1306 26.9287 19.4275C27.7568 20.7869 28.7881 21.9588 30.0693 22.9275C31.7256 24.1775 33.6475 24.8025 35.6162 25.2869C36.0068 25.3806 36.46 25.4119 36.8506 25.3025C39.5225 24.5369 42.1787 23.74 44.835 22.9275C48.6475 21.7713 52.4756 20.5838 56.4131 19.365ZM5.11621 30.7556C5.36621 30.9119 5.52246 31.0056 5.69434 31.0994C11.6006 34.1931 17.5225 37.2869 23.4131 40.4119C23.7725 40.5994 24.085 40.615 24.46 40.49C34.8975 37.2556 45.3193 34.0369 55.7568 30.8025C55.9443 30.74 56.1318 30.6775 56.4287 30.5838C56.1318 30.4119 55.96 30.3181 55.8037 30.2244C52.9287 28.7088 50.0225 27.2556 47.1787 25.6775C46.2725 25.1775 45.46 25.0838 44.5693 25.5369C44.3975 25.6306 44.1943 25.8181 44.1475 25.99C43.835 26.9431 42.96 27.2244 42.1787 26.615C42.0225 26.49 41.7412 26.4275 41.5381 26.4744C40.1943 26.8338 38.8506 27.24 37.5068 27.6306C37.3662 27.6775 37.2256 27.74 37.1006 27.7869C37.3037 28.6463 37.0068 29.2869 36.335 29.4744C35.6318 29.6775 35.1475 29.2869 34.7568 28.24C29.8975 29.115 25.0381 29.0525 20.21 28.1931C19.96 29.1931 19.4443 29.6463 18.7568 29.5056C18.0225 29.365 17.7256 28.7556 17.8975 27.7244C16.9912 27.3338 16.1318 27.2556 15.1475 27.5994C13.2725 28.2869 11.335 28.8181 9.42871 29.4119C8.00684 29.8338 6.61621 30.2713 5.11621 30.7556ZM18.9287 25.4119C22.8975 26.4275 26.9131 26.6931 30.9756 26.2869C28.8037 25.1931 27.0068 23.6619 25.5537 21.6775C23.6787 23.5525 21.4756 24.7556 18.9287 25.4119Z" fill="#2E367B"/>
<path d="M0.819336 30.9119C1.20996 31.2087 1.55371 31.5837 1.99121 31.8181C5.20996 33.5212 8.42871 35.2087 11.6631 36.8962C11.8662 37.0056 12.0537 37.115 12.3506 37.2869C10.3193 37.9119 8.39746 38.5212 6.47559 39.115C5.02246 39.5681 3.58496 40.0212 2.13184 40.4431C1.58496 40.5994 1.13184 40.8494 0.834961 41.3337C0.819336 37.8494 0.819336 34.3806 0.819336 30.9119Z" fill="none"/>
<path d="M0.819336 19.6775C1.20996 19.99 1.55371 20.365 1.99121 20.5837C5.41309 22.3337 8.85059 24.0681 12.2881 25.8025C12.335 25.8337 12.3818 25.8806 12.4756 25.9587C10.6631 26.5212 8.89746 27.0837 7.13184 27.6462C5.45996 28.1775 3.80371 28.7087 2.13184 29.2087C1.58496 29.365 1.13184 29.615 0.834961 30.0994C0.819336 26.615 0.819336 23.1462 0.819336 19.6775Z" fill="none"/>
<path d="M40.413 47.5994C40.4442 46.9587 41.0067 46.4431 41.6473 46.4744C42.2723 46.5056 42.7723 47.0525 42.7411 47.6775C42.7098 48.3181 42.1473 48.8494 41.5067 48.8025C40.8973 48.7556 40.3817 48.1931 40.413 47.5994Z" fill="#E31E24"/>
<path d="M56.4131 19.365C52.46 20.5837 48.6475 21.7868 44.8193 22.9431C42.1631 23.7556 39.5068 24.5525 36.835 25.3181C36.46 25.4275 35.9912 25.3962 35.6006 25.3025C33.6318 24.8025 31.71 24.1931 30.0537 22.9431C28.7725 21.9743 27.7412 20.8025 26.9131 19.4431C26.7412 19.1462 26.4912 18.865 26.21 18.6775C25.71 18.365 25.1943 18.5212 24.7256 19.0837C23.7256 20.2556 22.6006 21.2556 21.2412 21.9743C19.7256 22.7868 18.1006 23.24 16.3818 23.3025C15.1787 23.3493 13.96 23.3181 12.7568 23.3181C12.5693 23.3181 12.3662 23.2868 12.1943 23.2087C9.88184 22.0368 7.58496 20.865 5.28809 19.6775C5.25684 19.6618 5.24121 19.615 5.17871 19.5368C5.39746 19.4587 5.58496 19.3806 5.77246 19.3337C16.21 16.0993 26.6475 12.8806 37.0693 9.64621C37.4443 9.53684 37.7568 9.55246 38.1162 9.73996C44.0068 12.8493 49.8975 15.9275 55.7881 19.0212C55.9756 19.0993 56.1318 19.1931 56.4131 19.365Z" fill="none"/>
<path d="M5.11621 30.7556C6.61621 30.2869 8.02246 29.8337 9.41309 29.3962C11.3193 28.8025 13.2568 28.2556 15.1318 27.5837C16.1162 27.2244 16.9756 27.3181 17.8818 27.7087C17.71 28.74 18.0068 29.3494 18.7412 29.49C19.4287 29.615 19.9443 29.1775 20.1943 28.1775C25.0381 29.0525 29.8975 29.0994 34.7412 28.2244C35.1318 29.2869 35.6162 29.6619 36.3193 29.4587C36.9912 29.2712 37.2881 28.6306 37.085 27.7712C37.2256 27.7244 37.3506 27.6619 37.4912 27.615C38.835 27.2244 40.1787 26.8181 41.5225 26.4587C41.71 26.4119 42.0068 26.4744 42.1631 26.5994C42.9287 27.2087 43.8193 26.9275 44.1318 25.9744C44.1943 25.7869 44.3818 25.615 44.5537 25.5212C45.4443 25.0681 46.2412 25.1619 47.1631 25.6619C50.0068 27.24 52.8975 28.7087 55.7881 30.2087C55.96 30.3025 56.1318 30.3962 56.4131 30.5681C56.1162 30.6619 55.9287 30.74 55.7412 30.7869C45.3037 34.0212 34.8818 37.24 24.4443 40.4744C24.0693 40.5837 23.7725 40.5837 23.3975 40.3962C17.4912 37.2869 11.585 34.1931 5.67871 31.0837C5.52246 31.0056 5.36621 30.8962 5.11621 30.7556ZM43.1631 29.6306C43.1631 29.0056 42.6475 28.4744 42.0225 28.4587C41.3975 28.4431 40.8506 28.9587 40.835 29.5837C40.8193 30.2244 41.3506 30.7869 42.0068 30.7869C42.6162 30.7869 43.1475 30.2556 43.1631 29.6306ZM34.3818 33.1619C34.3662 32.5369 33.8193 32.0212 33.21 32.0212C32.585 32.0369 32.0537 32.5681 32.0537 33.1775C32.0537 33.8181 32.6162 34.3806 33.2568 34.3494C33.8818 34.3337 34.3975 33.7869 34.3818 33.1619ZM24.4443 35.4744C23.8037 35.4744 23.2881 35.9744 23.2881 36.615C23.2725 37.2556 23.7725 37.7869 24.3975 37.8025C25.0381 37.8181 25.6162 37.2712 25.6006 36.6306C25.6006 36.0212 25.0537 35.4744 24.4443 35.4744ZM27.085 30.9587C26.46 30.9587 25.8975 31.5369 25.9287 32.1619C25.9443 32.7712 26.4912 33.3025 27.1006 33.3025C27.71 33.3025 28.2568 32.7712 28.2725 32.1619C28.2725 31.5369 27.71 30.9587 27.085 30.9587ZM17.6006 34.365C18.21 34.365 18.7568 33.8181 18.7725 33.2087C18.7881 32.5994 18.2568 32.0369 17.6318 32.0212C17.0068 32.0056 16.4131 32.5681 16.4287 33.1931C16.4443 33.8025 16.9912 34.365 17.6006 34.365Z" fill="none"/>
<path d="M18.9287 25.4119C21.46 24.7556 23.6631 23.5369 25.5537 21.6775C27.0068 23.6619 28.8037 25.1931 30.9756 26.2869C26.9131 26.7087 22.8975 26.4431 18.9287 25.4119Z" fill="none"/>
<path d="M43.1629 29.6306C43.1629 30.2556 42.6317 30.7868 42.0067 30.7868C41.366 30.7868 40.8192 30.2243 40.8348 29.5837C40.8504 28.9587 41.3973 28.4431 42.0223 28.4587C42.6473 28.4743 43.1629 29.0056 43.1629 29.6306Z" fill="#E31E24"/>
<path d="M34.3818 33.1619C34.3975 33.7869 33.8818 34.3337 33.2568 34.3494C32.6162 34.3806 32.0537 33.8181 32.0537 33.1775C32.0537 32.5525 32.585 32.0212 33.21 32.0212C33.835 32.0212 34.3662 32.5369 34.3818 33.1619Z" fill="#E31E24"/>
<path d="M24.4442 35.4744C25.0692 35.4744 25.6005 36.0212 25.6161 36.6306C25.6161 37.2712 25.0536 37.8181 24.413 37.8025C23.7723 37.7869 23.288 37.2556 23.3036 36.615C23.288 35.9744 23.8036 35.4744 24.4442 35.4744Z" fill="#E31E24"/>
<path d="M27.0848 30.9587C27.7098 30.9587 28.2723 31.5369 28.2567 32.1619C28.241 32.7712 27.6942 33.3025 27.0848 33.3025C26.4754 33.3025 25.9285 32.7712 25.9129 32.1619C25.8973 31.5369 26.4442 30.9587 27.0848 30.9587Z" fill="#E31E24"/>
<path d="M17.6006 34.365C16.9912 34.365 16.4443 33.8025 16.4287 33.2087C16.4287 32.5837 17.0068 32.0056 17.6318 32.0369C18.2412 32.0525 18.7725 32.615 18.7725 33.2244C18.7568 33.8181 18.21 34.365 17.6006 34.365Z" fill="#E31E24"/>
</g>
<defs>
<clipPath id="clip0_56_1223">
<rect width="60" height="60" fill="none" transform="translate(0.819336 0.724365)"/>
</clipPath>
</defs>
</svg>
