<svg xmlns="http://www.w3.org/2000/svg" xml:space="preserve" width="1243px" height="1583px" version="1.0" 
viewBox="0 0 1722 2193">
 <g fill="white">
<path d="M1459 598c0,-330 -268,-598 -598,-598 -330,0 -598,268 -598,598 0,82 16,160 46,231l463 1107c15,36 49,59 89,59 40,0 73,-22 89,-59l462 -1104c31,-72 48,-151 48,-234zm-404 -62c6,21 8,37 10,62 0,112 -91,204 -204,204 -112,0 -204,-91 -204,-204 1,-30 1,-32 10,-62 26,-82 103,-141 194,-141 91,0 168,59 194,142zm521 1274c0,-52 -70,-106 -184,-151 -70,-27 -154,-49 -248,-64l58 -138c91,16 173,39 243,67 171,67 277,168 277,287 0,119 -106,220 -277,287 -151,59 -357,96 -584,96 -227,0 -433,-37 -584,-96 -171,-67 -277,-168 -277,-287 0,-119 106,-220 277,-287 70,-28 152,-50 243,-67l58 138c-94,15 -178,37 -248,64 -114,45 -184,99 -184,151 0,52 70,106 184,151 134,53 322,86 531,86 209,0 396,-33 531,-86 114,-45 184,-99 184,-151z"/>
 </g>
</svg>
