<svg width="153" height="76" viewBox="0 0 153 76" fill="none" xmlns="http://www.w3.org/2000/svg">
<g clip-path="url(#clip0_47_2424)">
<path d="M23.2081 43.7867H32.7847V53.4163H12.4072V18.8276H23.2081V43.7867Z" stroke="#2E367B" stroke-width="0.640515" stroke-miterlimit="10" stroke-linecap="round" stroke-linejoin="round"/>
<path fill-rule="evenodd" clip-rule="evenodd" d="M23.2081 43.7867H32.7847V53.4163H12.4072V18.8276H23.2081V43.7867Z" fill="#FEFEFE"/>
<path fill-rule="evenodd" clip-rule="evenodd" d="M21.9832 20.0361V44.9952H31.5597V52.2066H13.6748V20.0361H21.9832Z" fill="#2E367B"/>
<path d="M132.354 48.6235H125.532L123.302 53.2439H111.32L127.675 18.6553H143.111V53.2439H132.354V48.6235Z" stroke="#2B2A29" stroke-width="0.640515" stroke-miterlimit="10" stroke-linecap="round" stroke-linejoin="round"/>
<path d="M132.353 34.1572L130.342 38.4322H132.353V34.1572Z" stroke="#2B2A29" stroke-width="0.640515" stroke-miterlimit="10" stroke-linecap="round" stroke-linejoin="round"/>
<path fill-rule="evenodd" clip-rule="evenodd" d="M132.354 48.6232H131.348V38.4323H132.354V34.1573L131.348 36.2732V18.655H143.155V53.2868H132.354V48.6232ZM131.348 48.6232H125.576L123.346 53.2436H111.364L127.719 18.6118H131.392V36.2732L130.386 38.3891H131.392V48.6232H131.348Z" fill="#FEFEFE"/>
<path fill-rule="evenodd" clip-rule="evenodd" d="M133.578 28.6729L128.374 39.641H133.578V28.6729ZM133.578 47.4138H124.789L122.559 52.0342H113.288L128.462 19.8638H136.595H141.886V52.0342H133.578V47.4138Z" fill="#2B2A29"/>
<path fill-rule="evenodd" clip-rule="evenodd" d="M76.3374 69.6092H85.1268C86.2637 69.6092 87.1383 69.3502 87.7068 68.7888C88.2752 68.2706 88.5813 67.5797 88.5813 66.7593V62.7002C88.5813 61.9229 88.2752 61.2752 87.663 60.8002C87.0508 60.3252 86.0888 60.1092 84.8207 60.1092H71.3086V74.4888H76.3374V69.6092ZM76.3374 62.7433H83.5526V66.8024H76.3374V62.7433ZM90.8115 60.1524V69.6092H95.8402V62.7433H98.3765V63.607H103.405V62.7433C103.405 61.9661 103.099 61.3183 102.487 60.8433C101.875 60.3683 100.913 60.1524 99.6446 60.1524H90.8115ZM105.592 60.282H110.62V69.6092H105.592V60.282ZM105.592 59.4183H110.62V56.8274H105.592V59.4183ZM117.923 69.6092V62.8297H124.045V69.6092H129.118V62.8297C129.118 62.0524 128.811 61.4047 128.199 60.9729C127.587 60.4979 126.625 60.282 125.313 60.282H112.851V69.6092H117.923ZM132.572 55.2297V60.282H131.26V62.8729H132.572V67.0615C132.572 67.8388 132.878 68.4865 133.49 68.9183C134.103 69.3933 135.065 69.6092 136.376 69.6092H137.645H143.679V67.0183H137.645V62.8297H143.679V60.2388H137.645V55.1865L132.572 55.2297Z" fill="#2B2A29"/>
<path d="M104.281 35.7115L97.1091 42.7934L90.1562 35.9706L107.035 19.2593L107.91 20.1229" stroke="#FFED00" stroke-width="0.640515" stroke-miterlimit="10" stroke-linecap="round" stroke-linejoin="round"/>
<path d="M107.91 20.1228C110.271 22.4546 112.326 25.1319 113.682 28.1546C114.819 30.7024 115.475 33.4228 115.475 36.2296C115.475 38.8637 114.906 41.3683 113.813 43.7433C112.72 46.1183 111.189 48.2342 109.353 50.0478C107.429 51.9478 105.198 53.5024 102.662 54.5387C100.257 55.5319 97.7208 56.0933 95.1408 56.0933C92.5171 56.1364 89.9809 55.6183 87.5321 54.6683C84.9521 53.6751 82.6782 52.1205 80.7104 50.1774C78.7864 48.2774 77.2996 46.1183 76.2939 43.6137C75.3756 41.2819 74.8946 38.7774 74.9383 36.2728C74.982 33.6819 75.5942 31.2205 76.6 28.8455C77.6932 26.2978 79.3111 24.0955 81.2789 22.1092C82.8094 20.5978 84.5585 19.3887 86.4389 18.4387C88.3192 17.4887 90.3307 16.841 92.4297 16.4955C94.4849 16.1501 96.5401 16.1069 98.5954 16.4092C100.607 16.7114 102.575 17.316 104.368 18.3092" stroke="#FFED00" stroke-width="0.640515" stroke-miterlimit="10" stroke-linecap="round" stroke-linejoin="round"/>
<path d="M104.367 18.3521L105.767 19.1725L96.8461 27.9816L96.1465 27.8089" stroke="#FFED00" stroke-width="0.640515" stroke-miterlimit="10" stroke-linecap="round" stroke-linejoin="round"/>
<path d="M96.1466 27.8088C94.7473 27.4633 93.2605 27.3338 91.8612 27.7656C90.6368 28.1974 89.5436 28.802 88.6253 29.7088C87.7945 30.5293 87.0948 31.5224 86.6138 32.602C86.1765 33.6383 85.9579 34.7179 86.0016 35.7974C86.0453 36.9202 86.264 37.9997 86.745 39.0361C87.226 40.1588 87.9694 41.1952 88.8877 42.0588C90.7243 43.8724 93.0419 45.427 95.753 45.427C98.2018 45.427 100.213 44.4338 101.919 42.7497C103.099 41.5838 103.93 40.2452 104.324 38.6906C104.586 37.6974 104.499 36.6611 104.236 35.7111" stroke="#FFED00" stroke-width="0.640515" stroke-miterlimit="10" stroke-linecap="round" stroke-linejoin="round"/>
<path fill-rule="evenodd" clip-rule="evenodd" d="M104.28 35.7114L97.1086 42.7933L90.1558 35.9274L107.035 19.2592L107.91 20.1228C110.271 22.4546 112.326 25.1319 113.682 28.1546C114.819 30.7024 115.475 33.4228 115.475 36.2296C115.475 38.8637 114.906 41.3683 113.813 43.7433C112.72 46.1183 111.189 48.2342 109.353 50.0478C107.429 51.9478 105.198 53.5024 102.662 54.5387C100.257 55.5319 97.7208 56.0933 95.1408 56.0933C92.5171 56.1364 89.9809 55.6183 87.5321 54.6683C84.9521 53.6751 82.6782 52.1205 80.7104 50.1774C78.7864 48.2774 77.2996 46.1183 76.2939 43.6137C75.3756 41.2819 74.8946 38.7774 74.9383 36.2728C74.982 33.6819 75.5942 31.2205 76.6 28.8455C77.6932 26.2978 79.3111 24.0955 81.2789 22.1092C82.8094 20.5978 84.5585 19.3887 86.4389 18.4387C88.3192 17.4887 90.3307 16.841 92.4297 16.4955C94.4849 16.1501 96.5401 16.1069 98.5954 16.4092C100.607 16.7114 102.575 17.316 104.368 18.3092L105.811 19.0864L96.89 27.8955L96.1903 27.7228C94.791 27.3774 93.3042 27.2478 91.9049 27.6796C90.6805 28.1114 89.5873 28.716 88.669 29.6228C87.8382 30.4433 87.1385 31.4364 86.6575 32.516C86.2202 33.5524 86.0016 34.6319 86.0453 35.7114C86.089 36.8342 86.3077 37.9137 86.7887 38.9501C87.2697 40.0728 88.0131 41.1092 88.9314 41.9728C90.768 43.7864 93.0856 45.341 95.7967 45.341C98.2455 45.341 100.257 44.3478 101.962 42.6637C103.143 41.4978 103.974 40.1592 104.368 38.6046C104.586 37.6978 104.542 36.7046 104.28 35.7114Z" fill="#FEFEFE"/>
<path fill-rule="evenodd" clip-rule="evenodd" d="M88.0128 42.9659C90.5491 45.4705 93.0854 46.6796 95.7528 46.7228C98.3765 46.7228 100.738 45.7296 102.793 43.6569C104.192 42.275 105.111 40.7205 105.548 39.0364C105.985 37.3091 105.723 35.4955 104.761 33.5523L97.1084 41.1091L91.9047 35.9705L107.035 21.0296C109.571 23.5341 111.408 26.0819 112.544 28.6728C113.681 31.2637 114.25 33.8114 114.25 36.2728C114.25 38.7341 113.725 41.0659 112.676 43.3114C111.626 45.5137 110.227 47.5 108.434 49.2705C106.554 51.1273 104.455 52.5523 102.137 53.5023C99.8195 54.4523 97.4582 54.9705 95.0531 54.9705C92.6481 55.0137 90.2867 54.5387 87.9254 53.6319C85.5641 52.725 83.4651 51.3 81.541 49.4432C79.6607 47.5864 78.3051 45.5569 77.4306 43.3114C76.5123 41.0659 76.1187 38.7773 76.1624 36.4455C76.2062 34.1137 76.7309 31.7819 77.7367 29.4932C78.7424 27.2046 80.1855 25.0887 82.1532 23.1455C83.5526 21.7637 85.2142 20.5978 87.0071 19.6909C88.8437 18.7841 90.724 18.1796 92.6481 17.8341C94.6158 17.5319 96.5399 17.4887 98.4639 17.7478C100.388 18.0069 102.181 18.6114 103.799 19.475L96.4962 26.6864C94.6158 26.2114 92.9542 26.2114 91.5111 26.6864C90.0681 27.1614 88.8437 27.9387 87.7942 28.9319C86.7885 29.925 86.0451 31.0478 85.5203 32.2569C84.9956 33.4659 84.7769 34.7182 84.8207 35.9273C84.8644 37.1796 85.1268 38.3887 85.6515 39.5978C86.1325 40.8069 86.9196 41.9296 88.0128 42.9659Z" fill="#FFED00"/>
<path d="M50.2314 44.6933C50.2752 44.7365 50.3626 44.7365 50.4064 44.7797C51.4558 45.2115 52.5491 45.4706 53.686 45.5138C54.8229 45.557 55.9161 45.2979 56.9219 44.9092C58.0588 44.4774 59.0209 43.7865 59.8517 42.9229C60.77 42.0161 61.4259 40.9365 61.8195 39.7274C62.3005 38.3456 62.1693 36.8774 61.7757 35.4956" stroke="#E31E24" stroke-width="0.640515" stroke-miterlimit="10" stroke-linecap="round" stroke-linejoin="round"/>
<path d="M61.8194 35.4526L61.6445 34.7617L70.5651 25.9526L71.3522 27.3776" stroke="#E31E24" stroke-width="0.640515" stroke-miterlimit="10" stroke-linecap="round" stroke-linejoin="round"/>
<path d="M71.3528 27.3779C72.3585 29.1483 72.9707 31.0483 73.2768 33.0779C73.5829 35.1074 73.5392 37.1801 73.1894 39.1665C72.8396 41.2392 72.1836 43.2256 71.2216 45.0824C70.2596 46.9824 68.9915 48.7097 67.5047 50.1779C65.5369 52.121 63.263 53.7188 60.6831 54.7983C58.278 55.7915 55.7855 56.396 53.1618 56.4392C50.6255 56.4824 48.0893 56.0074 45.7279 55.1006C43.1917 54.1074 41.0053 52.6392 39.0812 50.7392C37.1134 48.796 35.5829 46.5506 34.5335 44.0029C33.5714 41.5847 33.0467 39.0801 33.0904 36.4892C33.1341 33.8983 33.6589 31.4369 34.6646 29.0619C35.7141 26.5574 37.2883 24.3551 39.2124 22.4551C41.0927 20.5983 43.2354 19.1301 45.5967 18.0506C48.0018 16.971 50.5381 16.4097 53.2055 16.4097C56.0478 16.4097 58.8027 17.0574 61.3827 18.1801C64.4437 19.4756 67.1549 21.5483 69.5162 23.8801" stroke="#E31E24" stroke-width="0.640515" stroke-miterlimit="10" stroke-linecap="round" stroke-linejoin="round"/>
<path d="M69.5594 23.8369L70.434 24.7006L50.2314 44.6937" stroke="#E31E24" stroke-width="0.640515" stroke-miterlimit="10" stroke-linecap="round" stroke-linejoin="round"/>
<path d="M44.0225 37.0934L53.7739 27.4639" stroke="#E31E24" stroke-width="0.640515" stroke-miterlimit="10" stroke-linecap="round" stroke-linejoin="round"/>
<path d="M53.7738 27.464C52.8118 27.2049 51.7623 27.1185 50.7565 27.3776C49.1386 27.7663 47.783 28.6299 46.6461 29.7526C44.9407 31.4367 43.8912 33.4231 43.9349 35.8413C43.9349 36.2731 43.9786 36.6617 44.0661 37.0504" stroke="#E31E24" stroke-width="0.640515" stroke-miterlimit="10" stroke-linecap="round" stroke-linejoin="round"/>
<path fill-rule="evenodd" clip-rule="evenodd" d="M50.2317 44.6935C50.2755 44.7367 50.3629 44.7367 50.4067 44.7799C51.4561 45.2117 52.5494 45.4708 53.6863 45.5139C54.8232 45.5571 55.9164 45.298 56.9222 44.9094C58.0591 44.4776 59.0212 43.7867 59.852 42.923C60.7703 42.0162 61.4262 40.9367 61.8198 39.7276C62.3008 38.3458 62.1696 36.8776 61.776 35.4958L61.6011 34.8048L70.5217 25.9958L71.3088 27.4208C72.3146 29.1912 72.9268 31.0912 73.2329 33.1208C73.539 35.1503 73.4953 37.223 73.1454 39.2094C72.7956 41.2821 72.1397 43.2685 71.1777 45.1253C70.2156 47.0253 68.9475 48.7526 67.4607 50.2208C65.493 52.1639 63.2191 53.7617 60.6391 54.8412C58.2341 55.8344 55.7415 56.4389 53.1178 56.4821C51.6748 56.5253 50.2317 56.3526 48.7887 56.0503V32.3435L53.73 27.4639C52.768 27.2048 51.7185 27.1185 50.7128 27.3776C50.0131 27.5503 49.4009 27.8094 48.7887 28.1117V16.9276C50.2317 16.5821 51.6748 16.4094 53.2053 16.3662C56.0476 16.3662 58.8025 17.0139 61.3825 18.1367C64.4435 19.4321 67.1546 21.5048 69.516 23.8367L70.3906 24.7003L50.2317 44.6935ZM48.8324 56.0071C47.783 55.7912 46.7335 55.4889 45.684 55.0571C43.1477 54.0639 40.9613 52.5958 39.0373 50.6958C37.0695 48.7526 35.539 46.5071 34.4895 43.9594C33.5275 41.5412 33.0027 39.0367 33.0465 36.4458C33.0902 33.8549 33.6149 31.3935 34.6207 29.0185C35.6702 26.5139 37.2444 24.3117 39.1685 22.4117C41.0488 20.5548 43.1915 19.0867 45.5528 18.0071C46.6023 17.5321 47.6518 17.1435 48.745 16.8844V28.0685C47.9579 28.5003 47.2145 29.0617 46.5586 29.7094C44.8532 31.3935 43.8037 33.3799 43.8474 35.798C43.8474 36.2299 43.8911 36.6185 43.9786 37.0071L48.7887 32.2571L48.8324 56.0071Z" fill="#FEFEFE"/>
<path fill-rule="evenodd" clip-rule="evenodd" d="M43.4547 39.3815C42.93 38.2156 42.6676 37.0497 42.6676 35.8838C42.6676 33.2929 43.6733 30.9611 45.7723 28.9315C47.1716 27.5497 48.7458 26.6429 50.4512 26.2111C52.2004 25.7793 54.037 26.0383 56.0048 26.9883L43.4547 39.3815ZM48.2211 44.952L68.7297 24.6997C66.1935 22.1952 63.6135 20.3815 60.9898 19.2588C58.3661 18.1361 55.7861 17.5747 53.2936 17.5747C50.8011 17.5747 48.4397 18.0929 46.1659 19.1293C43.9357 20.1656 41.9242 21.5474 40.1313 23.3179C38.251 25.1747 36.808 27.2474 35.846 29.5361C34.8839 31.8247 34.3592 34.1565 34.3592 36.5315C34.3155 38.9065 34.7965 41.2383 35.7148 43.5702C36.6331 45.902 38.0761 47.9747 39.9564 49.8747C41.8367 51.7315 43.892 53.0702 46.1659 53.977C48.4397 54.8838 50.7573 55.2724 53.1187 55.2293C55.48 55.1861 57.8413 54.6679 60.159 53.6747C62.4766 52.6815 64.6192 51.2565 66.587 49.3133C67.9863 47.9315 69.167 46.2906 70.0853 44.5202C71.0036 42.7065 71.6158 40.8497 71.9656 38.9497C72.2717 37.0065 72.3155 35.1065 72.0531 33.2065C71.7907 31.3065 71.1785 29.5361 70.3039 27.9383L63.0013 35.1497C63.4823 37.0065 63.4823 38.6474 63.0013 40.0724C62.5203 41.4974 61.7332 42.7065 60.7274 43.7429C59.7217 44.7361 58.5847 45.4702 57.3603 45.9883C56.1359 46.5065 54.8678 46.7224 53.6434 46.6793C52.3753 46.6361 51.1509 46.377 49.9265 45.8588C49.3143 45.6429 48.7458 45.3406 48.2211 44.952Z" fill="#E31E24"/>
<path d="M74.7635 44.3911L74.7197 44.9093" stroke="#E31E24" stroke-width="0.320193" stroke-miterlimit="10"/>
<path d="M74.7199 44.9092C74.2826 53.0274 70.6095 60.7137 64.5749 66.1978C59.2401 71.0774 52.5059 73.9705 45.2907 74.8774C41.049 75.3955 36.6325 75.5251 32.3471 75.6115C27.0559 75.6978 21.7648 75.6978 16.5174 75.6978C12.0571 75.6978 7.55307 75.6978 3.09277 75.7842" stroke="#E31E24" stroke-width="0.320193" stroke-miterlimit="10"/>
<path d="M3.13672 75.7411L1.16895 75.7843L11.3577 54.1934" stroke="#E31E24" stroke-width="0.320193" stroke-miterlimit="10"/>
<path fill-rule="evenodd" clip-rule="evenodd" d="M73.4957 44.8228C70.4785 52.6387 62.7823 58.3387 54.5176 58.8137C48.3519 59.1591 41.7926 57.2591 36.4578 51.0409L34.7524 51.2568V55.3591L12.1448 55.4023L3.13672 74.5318C17.5671 74.2728 35.452 74.8773 45.2035 73.6682C52.5498 72.7614 58.9342 69.7387 63.788 65.3341C69.5165 60.0659 73.0585 52.6818 73.4957 44.8228Z" fill="#E31E24"/>
<path d="M73.1016 27.7657C74.2385 20.0793 79.311 12.7384 85.8265 8.59298C93.1292 3.92934 101.744 0.82025 110.489 0.733887" stroke="#FFED00" stroke-width="0.320193" stroke-miterlimit="10"/>
<path d="M110.489 0.734491L152.469 0.216309L144.248 17.6618" stroke="#FFED00" stroke-width="0.320193" stroke-miterlimit="10"/>
<path fill-rule="evenodd" clip-rule="evenodd" d="M74.1514 29.6231C75.1571 26.039 77.1686 23.3185 79.5737 20.7708C81.935 18.2231 84.8211 16.4094 87.9258 15.2867C91.6427 13.9481 95.7532 13.6458 99.7762 14.4231C105.111 15.4594 110.14 18.3526 113.376 23.2754H122.996L126.188 16.4958H143.417L150.501 1.51172L110.49 2.0299C101.263 2.07308 92.8234 5.61399 86.5265 9.6299C79.8361 13.9049 74.6761 21.7208 74.1514 29.6231Z" fill="#FFED00"/>
<path fill-rule="evenodd" clip-rule="evenodd" d="M21.5896 58.123C22.6828 58.123 23.6011 58.9867 23.6011 60.1094C23.6011 61.2321 22.7266 62.0958 21.5896 62.0958C20.4964 62.0958 19.5781 61.2321 19.5781 60.1094C19.5781 58.9867 20.4964 58.123 21.5896 58.123Z" fill="#FEFEFE"/>
<path fill-rule="evenodd" clip-rule="evenodd" d="M15.2928 58.123C16.386 58.123 17.3043 58.9867 17.3043 60.1094C17.3043 61.2321 16.4297 62.0958 15.2928 62.0958C14.1995 62.0958 13.2812 61.2321 13.2812 60.1094C13.2812 58.9867 14.1995 58.123 15.2928 58.123Z" fill="#FEFEFE"/>
<path fill-rule="evenodd" clip-rule="evenodd" d="M27.2742 58.5117C28.1488 58.5117 28.8922 59.2026 28.8922 60.1094C28.8922 60.9731 28.1925 61.7072 27.2742 61.7072C26.3996 61.7072 25.6562 61.0163 25.6562 60.1094C25.7 59.2458 26.3996 58.5117 27.2742 58.5117Z" fill="#FEFEFE"/>
<path fill-rule="evenodd" clip-rule="evenodd" d="M32.5216 58.7705C33.265 58.7705 33.8772 59.375 33.8772 60.1091C33.8772 60.8432 33.265 61.4478 32.5216 61.4478C31.7782 61.4478 31.166 60.8432 31.166 60.1091C31.166 59.375 31.7782 58.7705 32.5216 58.7705Z" fill="#FEFEFE"/>
<path fill-rule="evenodd" clip-rule="evenodd" d="M37.1135 58.9868C37.7694 58.9868 38.2504 59.505 38.2504 60.1095C38.2504 60.7573 37.7257 61.2323 37.1135 61.2323C36.4576 61.2323 35.9766 60.7141 35.9766 60.1095C35.9766 59.4618 36.5013 58.9868 37.1135 58.9868Z" fill="#FEFEFE"/>
<path fill-rule="evenodd" clip-rule="evenodd" d="M41.6614 58.9868C42.3173 58.9868 42.7983 59.505 42.7983 60.1095C42.7983 60.7573 42.2736 61.2323 41.6614 61.2323C41.0054 61.2323 40.5244 60.7141 40.5244 60.1095C40.5244 59.4618 41.0492 58.9868 41.6614 58.9868Z" fill="#FEFEFE"/>
<path fill-rule="evenodd" clip-rule="evenodd" d="M21.5896 63.0024C22.6828 63.0024 23.6011 63.8661 23.6011 64.9888C23.6011 66.0684 22.7266 66.9752 21.5896 66.9752C20.4964 66.9752 19.5781 66.1115 19.5781 64.9888C19.6219 63.9093 20.4964 63.0024 21.5896 63.0024Z" fill="#FEFEFE"/>
<path fill-rule="evenodd" clip-rule="evenodd" d="M21.5896 68.0117C22.6828 68.0117 23.6011 68.8754 23.6011 69.9981C23.6011 71.0776 22.7266 71.9844 21.5896 71.9844C20.4964 71.9844 19.5781 71.1208 19.5781 69.9981C19.6219 68.9185 20.4964 68.0117 21.5896 68.0117Z" fill="#FEFEFE"/>
<path fill-rule="evenodd" clip-rule="evenodd" d="M15.2928 63.0024C16.386 63.0024 17.3043 63.8661 17.3043 64.9888C17.3043 66.0684 16.4297 66.9752 15.2928 66.9752C14.1995 66.9752 13.2812 66.1115 13.2812 64.9888C13.2812 63.9093 14.1995 63.0024 15.2928 63.0024Z" fill="#FEFEFE"/>
<path fill-rule="evenodd" clip-rule="evenodd" d="M15.2928 68.0117C16.386 68.0117 17.3043 68.8754 17.3043 69.9981C17.3043 71.0776 16.4297 71.9844 15.2928 71.9844C14.1995 71.9844 13.2812 71.1208 13.2812 69.9981C13.2812 68.9185 14.1995 68.0117 15.2928 68.0117Z" fill="#FEFEFE"/>
<path fill-rule="evenodd" clip-rule="evenodd" d="M27.2742 63.3911C28.1488 63.3911 28.8922 64.082 28.8922 64.9888C28.8922 65.8525 28.1925 66.5866 27.2742 66.5866C26.3996 66.5866 25.6562 65.8957 25.6562 64.9888C25.7 64.1252 26.3996 63.3911 27.2742 63.3911Z" fill="#FEFEFE"/>
<path fill-rule="evenodd" clip-rule="evenodd" d="M27.2742 68.4004C28.1488 68.4004 28.8922 69.0913 28.8922 69.9981C28.8922 70.9049 28.1925 71.5958 27.2742 71.5958C26.3996 71.5958 25.6562 70.8618 25.6562 69.9981C25.6562 69.1345 26.3996 68.4004 27.2742 68.4004Z" fill="#FEFEFE"/>
<path fill-rule="evenodd" clip-rule="evenodd" d="M32.5216 63.6504C33.265 63.6504 33.8772 64.2549 33.8772 64.989C33.8772 65.7231 33.265 66.3277 32.5216 66.3277C31.7782 66.3277 31.166 65.7231 31.166 64.989C31.166 64.2549 31.7782 63.6504 32.5216 63.6504Z" fill="#FEFEFE"/>
<path fill-rule="evenodd" clip-rule="evenodd" d="M32.5216 68.6592C33.265 68.6592 33.8772 69.2637 33.8772 69.9978C33.8772 70.7319 33.265 71.3365 32.5216 71.3365C31.7782 71.3365 31.166 70.7319 31.166 69.9978C31.166 69.2637 31.7782 68.6592 32.5216 68.6592Z" fill="#FEFEFE"/>
<path fill-rule="evenodd" clip-rule="evenodd" d="M37.1135 63.8662C37.7694 63.8662 38.2504 64.3844 38.2504 64.9889C38.2504 65.6367 37.7257 66.1117 37.1135 66.1117C36.4576 66.1117 35.9766 65.5935 35.9766 64.9889C35.9766 64.3844 36.5013 63.8662 37.1135 63.8662Z" fill="#FEFEFE"/>
<path fill-rule="evenodd" clip-rule="evenodd" d="M37.1135 68.832C37.7694 68.832 38.2504 69.3502 38.2504 69.9548C38.2504 70.6025 37.7257 71.0775 37.1135 71.0775C36.4576 71.0775 35.9766 70.5593 35.9766 69.9548C35.9766 69.3502 36.5013 68.832 37.1135 68.832Z" fill="#FEFEFE"/>
<path fill-rule="evenodd" clip-rule="evenodd" d="M41.6614 63.8662C42.3173 63.8662 42.7983 64.3844 42.7983 64.9889C42.7983 65.6367 42.2736 66.1117 41.6614 66.1117C41.0054 66.1117 40.5244 65.5935 40.5244 64.9889C40.5244 64.3844 41.0492 63.8662 41.6614 63.8662Z" fill="#FEFEFE"/>
<path fill-rule="evenodd" clip-rule="evenodd" d="M41.6614 68.832C42.3173 68.832 42.7983 69.3502 42.7983 69.9548C42.7983 70.6025 42.2736 71.0775 41.6614 71.0775C41.0054 71.0775 40.5244 70.5593 40.5244 69.9548C40.5244 69.3502 41.0492 68.832 41.6614 68.832Z" fill="#FEFEFE"/>
<path fill-rule="evenodd" clip-rule="evenodd" d="M133.272 13.3863C132.179 13.3863 131.261 12.5227 131.261 11.3999C131.261 10.2772 132.135 9.41357 133.272 9.41357C134.365 9.41357 135.284 10.2772 135.284 11.3999C135.284 12.5227 134.365 13.3863 133.272 13.3863Z" fill="#FEFEFE"/>
<path fill-rule="evenodd" clip-rule="evenodd" d="M139.569 13.3863C138.476 13.3863 137.558 12.5227 137.558 11.3999C137.558 10.2772 138.432 9.41357 139.569 9.41357C140.662 9.41357 141.581 10.2772 141.581 11.3999C141.581 12.5227 140.662 13.3863 139.569 13.3863Z" fill="#FEFEFE"/>
<path fill-rule="evenodd" clip-rule="evenodd" d="M127.588 12.9977C126.713 12.9977 125.97 12.3068 125.97 11.4C125.97 10.4932 126.669 9.80225 127.588 9.80225C128.462 9.80225 129.206 10.4932 129.206 11.4C129.206 12.3068 128.462 12.9977 127.588 12.9977Z" fill="#FEFEFE"/>
<path fill-rule="evenodd" clip-rule="evenodd" d="M122.341 12.7388C121.598 12.7388 120.985 12.1343 120.985 11.4002C120.985 10.6661 121.598 10.0615 122.341 10.0615C123.084 10.0615 123.697 10.6661 123.697 11.4002C123.697 12.1343 123.128 12.7388 122.341 12.7388Z" fill="#FEFEFE"/>
<path fill-rule="evenodd" clip-rule="evenodd" d="M117.749 12.5658C117.093 12.5658 116.612 12.0476 116.612 11.443C116.612 10.7953 117.137 10.3203 117.749 10.3203C118.405 10.3203 118.886 10.8385 118.886 11.443C118.93 12.0476 118.405 12.5658 117.749 12.5658Z" fill="#FEFEFE"/>
<path fill-rule="evenodd" clip-rule="evenodd" d="M113.201 12.5658C112.545 12.5658 112.064 12.0476 112.064 11.443C112.064 10.7953 112.589 10.3203 113.201 10.3203C113.857 10.3203 114.338 10.8385 114.338 11.443C114.382 12.0476 113.857 12.5658 113.201 12.5658Z" fill="#FEFEFE"/>
<path fill-rule="evenodd" clip-rule="evenodd" d="M133.272 8.50691C132.179 8.50691 131.261 7.64327 131.261 6.52054C131.261 5.441 132.135 4.53418 133.272 4.53418C134.365 4.53418 135.284 5.39782 135.284 6.52054C135.284 7.60009 134.365 8.50691 133.272 8.50691Z" fill="#FEFEFE"/>
<path fill-rule="evenodd" clip-rule="evenodd" d="M139.569 8.50691C138.476 8.50691 137.558 7.64327 137.558 6.52054C137.558 5.441 138.432 4.53418 139.569 4.53418C140.662 4.53418 141.581 5.39782 141.581 6.52054C141.581 7.60009 140.662 8.50691 139.569 8.50691Z" fill="#FEFEFE"/>
<path fill-rule="evenodd" clip-rule="evenodd" d="M127.588 8.11831C126.713 8.11831 125.97 7.4274 125.97 6.52058C125.97 5.65694 126.669 4.92285 127.588 4.92285C128.462 4.92285 129.206 5.61376 129.206 6.52058C129.206 7.4274 128.462 8.11831 127.588 8.11831Z" fill="#FEFEFE"/>
<path fill-rule="evenodd" clip-rule="evenodd" d="M122.341 7.85891C121.598 7.85891 120.985 7.25437 120.985 6.52028C120.985 5.78619 121.598 5.18164 122.341 5.18164C123.084 5.18164 123.697 5.78619 123.697 6.52028C123.697 7.25437 123.128 7.85891 122.341 7.85891Z" fill="#FEFEFE"/>
<path fill-rule="evenodd" clip-rule="evenodd" d="M117.749 7.68637C117.093 7.68637 116.612 7.16819 116.612 6.56365C116.612 5.91592 117.137 5.44092 117.749 5.44092C118.405 5.44092 118.886 5.9591 118.886 6.56365C118.93 7.16819 118.405 7.68637 117.749 7.68637Z" fill="#FEFEFE"/>
<path fill-rule="evenodd" clip-rule="evenodd" d="M113.201 7.68637C112.545 7.68637 112.064 7.16819 112.064 6.56365C112.064 5.91592 112.589 5.44092 113.201 5.44092C113.857 5.44092 114.338 5.9591 114.338 6.56365C114.382 7.16819 113.857 7.68637 113.201 7.68637Z" fill="#FEFEFE"/>
</g>
<defs>
<clipPath id="clip0_47_2424">
<rect width="152" height="76" fill="white" transform="translate(0.819336)"/>
</clipPath>
</defs>
</svg>
