<svg xmlns="http://www.w3.org/2000/svg" xml:space="preserve" width="1676px" height="1225px" version="1.0" 
viewBox="0 0 1038 759">
 <g>
  <!-- <path fill="green" d="M14162 53872c0,-1522 354,-2946 1502,-3913 3759,-3163 8217,76 8217,3079l0 833c0,2438 -2208,4582 -4998,4582 -2409,0 -4721,-2160 -4721,-4582zm-9719 -42625l29157 0 0 33600 -29157 0 0 -33600zm8053 -4582c0,-716 578,-1111 1250,-1111l10552 0c1671,0 1671,2222 0,2222l-10552 0c-672,0 -1250,-394 -1250,-1111zm-12496 2083l0 44708c0,4633 4068,8747 8331,8747l21382 0c2299,0 4292,-1178 5798,-2672 1305,-1294 2533,-3520 2533,-6076l0 -44708c0,-4628 -4055,-8747 -8331,-8747l-21382 0c-1656,0 -3402,729 -4625,1623 -2003,1466 -3706,4095 -3706,7124z"/> -->
    <path fill="white" d="M131 0l776 0c23,0 45,6 64,17l-368 403c-11,12 -24,22 -38,28 -14,6 -29,9 -46,9 -17,0 -32,-3 -46,-9 -14,-6 -27,-15 -38,-28l-368 -403c19,-11 41,-17 64,-17zm893 72c9,18 14,38 14,59l0 497c0,21 -5,42 -14,59l-281 -308 281 -308zm-52 670c-19,11 -41,17 -64,17l-776 0c-23,0 -45,-6 -64,-17l280 -306 32 35c19,20 40,36 63,46 24,10 49,16 77,16 27,0 53,-5 77,-16 23,-10 45,-26 63,-46l32 -35 280 306zm-957 -55c-9,-18 -14,-38 -14,-59l0 -497c0,-21 5,-42 14,-59l281 308 -281 308z"/>
    
    
 </g>
</svg>
